<svg width="48" height="18" viewBox="0 0 48 18" fill="none" xmlns="http://www.w3.org/2000/svg">
<path fill-rule="evenodd" clip-rule="evenodd" d="M11.4267 1.15627L11.0385 0H7.13586L7.13574 2.13686L6.20164 0H3.25067L0 7.43577H3.70635L4.20256 6.35188H5.28591L5.68298 7.43577H23.0061L23.0476 6.65066L23.7138 7.43577H28.4236L28.4235 6.75887L28.5684 6.86785L28.6685 6.9413C28.9563 7.14908 29.2782 7.34979 29.63 7.43577H33.2879L33.7841 6.35188H34.9304L35.4267 7.43577H40.1371L40.1371 6.57749L40.7046 7.43577H43.9092V0H40.4895L40.4894 0.71571L40.033 0H36.7174L36.7172 1.90973L35.8824 0H30.6844L30.6232 0.000432929L30.5443 0.00232391C29.7061 0.0297557 28.9861 0.288954 28.4236 0.722755V0.0985393L11.8149 0L11.4267 1.15627ZM24.2128 10.1496L21.331 10.2482L19.016 10.2481L18.276 11.2089L17.536 10.2481H9.81597V17.6839L17.536 17.6843L18.2503 16.658L18.9969 17.6839H23.6587L23.6586 15.9103L24.1327 15.9102L24.2096 15.9094C24.72 15.8987 25.1912 15.7818 25.5995 15.5771L25.5994 17.6839H28.962L29.0036 16.8987L29.6697 17.6839L44.5343 17.6843C46.1902 17.6607 47.3835 16.6047 47.3835 15.0007L47.3831 14.9493L47.3815 14.883C47.3574 14.1798 47.1166 13.6017 46.7108 13.1824L46.7043 13.176L48 10.3466H43.589L43.4935 10.3479C43.3669 10.3513 43.2428 10.3613 43.1217 10.3777L43.1359 10.3466H38.7249L38.6461 10.3475C38.175 10.3578 37.7389 10.4605 37.3575 10.6384L37.3575 10.2481H30.9598L30.9598 10.5914C30.5371 10.3706 30.0396 10.2481 29.4931 10.2481H25.5994L25.5995 10.4644C25.1989 10.2625 24.7363 10.1496 24.232 10.1496H24.2128Z" fill="white"/>
<path fill-rule="evenodd" clip-rule="evenodd" d="M6.46319 6.33124H7.75366L5.47052 1.10867H3.98152L1.69838 6.33124H2.98885L3.48519 5.24731H6.06612L6.46319 6.33124ZM9.44103 2.09406V6.33124H8.24983V1.10867H10.2352L11.4264 4.65608L12.6176 1.10867H14.6029V6.33124H13.4117V2.09406L11.9227 6.33124H10.8308L9.44103 2.09406ZM39.0225 2.78383V6.33124H37.8313V1.10867H39.4196L41.3057 4.06484L41.6035 4.55754V1.10867H42.7947V6.33124H41.3057L39.2211 3.17799L39.0225 2.78383ZM22.5446 16.5794V14.8057H24.1329L24.1795 14.8052C25.2474 14.7859 26.019 14.1004 26.019 13.0319C26.019 12.5698 25.8661 12.151 25.5911 11.8365C25.2899 11.492 24.842 11.2727 24.2879 11.2589L24.2322 11.2582L21.3534 11.3568V16.5794H22.5446ZM27.9046 16.579H26.7134V11.3564H29.4929L29.5415 11.3569C30.6054 11.3771 31.2797 12.0609 31.2797 13.0316C31.2797 13.3899 31.1772 13.7075 30.9814 13.9659L30.9595 13.994C30.7319 14.2794 30.3871 14.4892 29.9383 14.5971L29.89 14.6082L31.6768 16.579H30.1878L28.5995 14.7068H28.0039L27.9046 16.579ZM36.2434 16.579V15.4951H33.2654V14.4112H36.1441V13.3272H33.2654V12.3418H36.2434V11.3564H32.0742V16.579H36.2434ZM39.6669 16.6768L39.6183 16.6772H37.0374V15.5933H39.7176L39.7411 15.5929C40.0308 15.5828 40.3106 15.3858 40.2139 15.0021C40.2139 14.716 40.028 14.5222 39.7461 14.51L39.7176 14.5094H38.5264L38.4706 14.5088C37.9356 14.4987 37.5207 14.3409 37.2583 14.0357L37.2507 14.0267C37.0475 13.7854 36.9381 13.4536 36.9381 13.0313C36.9381 12.1579 37.6121 11.4756 38.6755 11.4551L38.7249 11.4546H41.4051L40.9088 12.5386H38.6256L38.5971 12.5392C38.3152 12.5514 38.1293 12.7452 38.1293 13.0313C38.1293 13.3174 38.3152 13.5112 38.5971 13.5234L38.6256 13.524H39.8168L39.8638 13.5243C40.8283 13.5397 41.4051 14.0323 41.4051 15.0021C41.4051 15.9727 40.7308 16.6566 39.6669 16.6768ZM44.5309 16.6768L44.4822 16.6772H41.9013V15.5933H44.5815L44.6124 15.5929C44.9888 15.5828 45.1745 15.3858 45.0778 15.0021C45.0778 14.716 44.8919 14.5222 44.61 14.51L44.5815 14.5094H43.3903L43.3242 14.5086C42.975 14.5007 42.6773 14.4296 42.4397 14.2949C42.0303 14.0625 41.802 13.6413 41.802 13.0313C41.802 12.1579 42.476 11.4756 43.5395 11.4551L43.5888 11.4546H46.269L45.7727 12.5386H43.4896L43.4611 12.5392C43.1792 12.5514 42.9932 12.7452 42.9932 13.0313C42.9932 13.3174 43.1792 13.5112 43.4611 13.5234L43.4896 13.524H44.6808L44.7277 13.5243C45.6922 13.5397 46.269 14.0323 46.269 15.0021C46.269 15.9727 45.5948 16.6566 44.5309 16.6768ZM18.2761 14.8053L16.9856 16.4805H15.4966L17.5812 13.9185L15.4966 11.3564H16.9856L18.2761 13.0316L19.5666 11.3564H21.0556L18.971 13.9185L21.0556 16.579H19.5666L18.2761 14.8053ZM12.1214 15.4951V14.4112H15.0001V13.3272H12.1214V12.3418H15.0994V11.3564H10.9302V16.579H15.0994V15.4951H12.1214ZM32.5703 6.33124L33.0667 5.24731H35.6476L36.144 6.33124H37.4344L35.1513 1.10867H33.563L31.2799 6.33124H32.5703ZM30.684 1.10867H32.0738V2.1926H30.7833L30.739 2.19309C29.8882 2.21206 29.4099 2.77891 29.394 3.62659L29.3936 3.67069V3.76923L29.394 3.81332C29.4099 4.66101 29.8882 5.22785 30.739 5.24682L30.7833 5.24731H31.0811L30.5848 6.33124L30.5348 6.33087C29.0924 6.30927 28.2223 5.35031 28.2027 3.82215L28.2024 3.76923L28.2027 3.62156C28.2221 2.18497 29.0935 1.13254 30.6314 1.10907L30.684 1.10867ZM27.3089 6.33091V1.20687H26.1177V6.33091H27.3089ZM22.0482 4.459L21.9489 6.33124H20.7577V1.10867H23.5372L23.5858 1.10913C24.6497 1.12932 25.324 1.81315 25.324 2.78383C25.324 3.55781 24.8455 4.14182 23.9826 4.34932L23.9342 4.36046L25.721 6.33124H24.232L22.6438 4.459H22.0482ZM19.8644 6.33124V5.24731H16.8864V4.16338H19.7651V3.07945H16.8864V2.09406H19.8644V1.10867H15.6952V6.33124H19.8644ZM4.37795 3.07949L4.77501 1.99556L5.17208 3.07949L5.66841 4.26196H3.88161L4.37795 3.07949ZM34.0584 3.07949L34.4554 1.99556L34.8525 3.07949L35.3488 4.26196H33.562L34.0584 3.07949ZM30.1873 13.0313C30.1873 12.7357 29.9888 12.4401 29.4925 12.4401L28.0034 12.3415V13.6225H29.4925C29.9888 13.6225 30.1873 13.3269 30.1873 13.0313ZM24.1321 13.8193C24.6284 13.8193 24.8269 13.5237 24.8269 13.1295L24.8264 13.1001C24.8119 12.7208 24.5167 12.4397 24.0328 12.4397H22.5438V13.8193H24.1321ZM24.2316 2.78353C24.2316 2.48792 24.0331 2.1923 23.5367 2.1923L22.0477 2.09376V3.37477H23.5367C24.0331 3.37477 24.2316 3.07915 24.2316 2.78353Z" fill="#006FCF"/>
</svg>
