<svg width="17" height="16" viewBox="0 0 17 16" fill="none" xmlns="http://www.w3.org/2000/svg">
<path d="M16.2994 14.6511L13.2347 11.7067C14.4243 10.2699 15.0004 8.44635 14.8445 6.61085C14.6887 4.77535 13.8126 3.06745 12.3966 1.83834C10.9806 0.609226 9.13215 -0.0476794 7.23142 0.00269722C5.33069 0.0530739 3.52212 0.806903 2.1776 2.10918C0.833078 3.41146 0.0547955 5.1632 0.00278471 7.00421C-0.0492261 8.84523 0.628988 10.6356 1.89797 12.0071C3.16696 13.3787 4.93025 14.2272 6.8253 14.3781C8.72034 14.5291 10.6031 13.9711 12.0864 12.8188L15.1264 15.7633C15.2032 15.8383 15.2946 15.8978 15.3952 15.9385C15.4959 15.9791 15.6039 16 15.7129 16C15.822 16 15.9299 15.9791 16.0306 15.9385C16.1313 15.8978 16.2226 15.8383 16.2994 15.7633C16.4483 15.6141 16.5316 15.4147 16.5316 15.2072C16.5316 14.9997 16.4483 14.8003 16.2994 14.6511ZM7.45205 12.8188C6.30836 12.8188 5.19035 12.4903 4.2394 11.8749C3.28846 11.2595 2.54729 10.3847 2.10961 9.36129C1.67194 8.33786 1.55743 7.2117 1.78055 6.12523C2.00367 5.03875 2.55441 4.04076 3.36313 3.25746C4.17184 2.47416 5.2022 1.94072 6.32392 1.72461C7.44563 1.50849 8.60832 1.61941 9.66496 2.04333C10.7216 2.46725 11.6247 3.18514 12.2601 4.1062C12.8955 5.02727 13.2347 6.11015 13.2347 7.21791C13.2347 8.70337 12.6254 10.128 11.541 11.1784C10.4565 12.2287 8.98569 12.8188 7.45205 12.8188Z" fill="#A2A2A2"/>
</svg>
