<svg width="471" height="70" viewBox="0 0 471 70" fill="none" xmlns="http://www.w3.org/2000/svg">
<g opacity="0.3">
<path d="M30.0275 32.5993C30.0275 28.555 30.0275 26.5328 31.2839 25.2764C32.5403 24.02 34.5624 24.02 38.6067 24.02C42.651 24.02 44.6732 24.02 45.9296 25.2764C47.186 26.5328 47.186 28.555 47.186 32.5993V36.8889C47.186 40.9332 47.186 42.9553 45.9296 44.2117C44.6732 45.4681 42.651 45.4681 38.6067 45.4681C34.5624 45.4681 32.5403 45.4681 31.2839 44.2117C30.0275 42.9553 30.0275 40.9332 30.0275 36.8889V32.5993Z" stroke="#13131A" stroke-width="1.92668"/>
<path d="M41.8236 42.2498H35.3892" stroke="#13131A" stroke-width="1.92668" stroke-linecap="round"/>
<path d="M43.699 24.4251L43.6088 24.5604C42.798 25.7766 42.3926 26.3847 41.8005 26.7527C41.6828 26.8258 41.5604 26.8913 41.4342 26.9487C40.7996 27.2373 40.0687 27.2373 38.607 27.2373C37.1453 27.2373 36.4145 27.2373 35.7799 26.9487C35.6537 26.8913 35.5313 26.8258 35.4136 26.7527C34.8214 26.3847 34.416 25.7766 33.6052 24.5604L33.515 24.4251" stroke="#13131A" stroke-width="1.92668" stroke-linecap="round"/>
</g>
</svg>
