<svg width="47" height="47" viewBox="0 0 47 47" fill="none" xmlns="http://www.w3.org/2000/svg">
<path d="M28.9049 21.9139C28.6322 21.9128 28.3622 21.9687 28.1124 22.0779C27.8625 22.1872 27.6382 22.3474 27.4539 22.5483C27.2695 22.7493 27.1292 22.9865 27.0418 23.2449C26.9544 23.5032 26.922 23.7769 26.9465 24.0485H30.9807C31.0067 23.7667 30.9714 23.4826 30.8771 23.2158C30.7829 22.949 30.6319 22.7058 30.4346 22.5029C30.2373 22.3 29.9984 22.1423 29.7343 22.0407C29.4702 21.939 29.1873 21.8957 28.9049 21.9139ZM18.5844 24.0877H16.1757V27.8868H18.134C20.0924 27.8868 20.954 27.2406 20.954 25.9285C20.954 24.6164 20.0532 24.0877 18.5844 24.0877ZM20.2882 20.6018C20.2882 19.5639 19.6028 18.9373 18.4278 18.9373H16.1757V22.3448H17.8403C19.5832 22.3448 20.2882 21.7181 20.2882 20.6018Z" fill="black"/>
<path d="M23.4996 3.9158C19.6264 3.9158 15.8402 5.06434 12.6197 7.21618C9.39925 9.36803 6.88921 12.4265 5.407 16.0049C3.92478 19.5833 3.53697 23.5208 4.29259 27.3196C5.04822 31.1184 6.91335 34.6078 9.65212 37.3466C12.3909 40.0854 15.8803 41.9505 19.6791 42.7061C23.4779 43.4618 27.4155 43.074 30.9938 41.5917C34.5722 40.1095 37.6307 37.5995 39.7825 34.379C41.9344 31.1586 43.0829 27.3723 43.0829 23.4991C43.0829 20.9274 42.5764 18.3809 41.5922 16.0049C40.6081 13.6289 39.1656 11.4701 37.3471 9.65162C35.5286 7.83314 33.3698 6.39065 30.9938 5.40649C28.6179 4.42234 26.0713 3.9158 23.4996 3.9158ZM18.9955 29.7658H13.708V17.0366H18.9955C21.2867 17.0366 22.7946 18.2312 22.7946 20.17C22.8216 20.8213 22.6157 21.4609 22.2138 21.9741C21.8118 22.4874 21.2401 22.8406 20.6013 22.9704C21.0061 22.9798 21.4048 23.0716 21.7729 23.2404C22.1411 23.4092 22.4709 23.6513 22.7422 23.952C23.0135 24.2526 23.2206 24.6055 23.3508 24.9889C23.4811 25.3724 23.5317 25.7783 23.4996 26.182C23.4996 28.4537 21.5413 29.7658 18.9955 29.7658ZM25.9475 18.0158H31.8225V18.995H25.9475V18.0158ZM33.2913 25.5554H26.8288V25.8295C26.7951 26.1271 26.8256 26.4285 26.9182 26.7133C27.0108 26.9981 27.1634 27.2597 27.3657 27.4805C27.568 27.7014 27.8153 27.8763 28.0909 27.9935C28.3665 28.1107 28.664 28.1674 28.9634 28.1599C29.3837 28.2253 29.8135 28.1363 30.1734 27.9096C30.5334 27.6828 30.7991 27.3336 30.9217 26.9262H33.2913C33.0803 27.8662 32.5302 28.6955 31.7462 29.2555C30.9622 29.8155 29.9994 30.0669 29.0417 29.9616C28.4296 30.0234 27.8115 29.9504 27.2307 29.7476C26.6499 29.5448 26.1206 29.2172 25.68 28.7878C25.2394 28.3584 24.8983 27.8378 24.6806 27.2624C24.463 26.687 24.374 26.0709 24.42 25.4574V24.5958C24.3784 24.0014 24.4659 23.405 24.6764 22.8476C24.8869 22.2901 25.2155 21.7848 25.6396 21.3663C26.0638 20.9477 26.5734 20.6258 27.1336 20.4227C27.6937 20.2196 28.2912 20.1401 28.885 20.1895C29.4769 20.1516 30.07 20.2409 30.6244 20.4514C31.1789 20.662 31.6818 20.9888 32.0993 21.41C32.5168 21.8313 32.8392 22.337 33.0448 22.8933C33.2504 23.4496 33.3345 24.0435 33.2913 24.6349V25.5554Z" fill="black"/>
</svg>
