<svg width="30" height="30" viewBox="0 0 30 30" fill="none" xmlns="http://www.w3.org/2000/svg">
<g opacity="0.4">
<path d="M4.09326 19.1197C3.03087 17.7395 2.49967 17.0493 2.49967 15.0002C2.49967 12.951 3.03087 12.2609 4.09326 10.8806C6.21456 8.12473 9.77219 5.00033 14.9995 5.00033C20.2267 5.00033 23.7844 8.12473 25.9057 10.8806C26.9681 12.2609 27.4992 12.951 27.4992 15.0002C27.4992 17.0493 26.9681 17.7395 25.9057 19.1197C23.7844 21.8756 20.2267 25 14.9995 25C9.77219 25 6.21456 21.8756 4.09326 19.1197Z" stroke="#13131A" stroke-width="2.46073"/>
<path d="M18.7496 15.0007C18.7496 17.0717 17.0707 18.7506 14.9997 18.7506C12.9287 18.7506 11.2498 17.0717 11.2498 15.0007C11.2498 12.9296 12.9287 11.2507 14.9997 11.2507C17.0707 11.2507 18.7496 12.9296 18.7496 15.0007Z" stroke="#13131A" stroke-width="2.46073"/>
</g>
</svg>
