<svg width="15" height="15" viewBox="0 0 15 15" fill="none" xmlns="http://www.w3.org/2000/svg">
<path d="M12.9416 2.05908C12.2075 1.31924 11.3163 0.753553 10.3339 0.403792C9.35155 0.0540298 8.30305 -0.0708711 7.26585 0.0383125C4.05132 0.361986 1.40612 2.96887 1.047 6.17936C0.565262 10.4221 3.84987 14 7.99285 14C9.31554 14 10.6111 13.6252 11.729 12.919C12.8468 12.2129 13.7412 11.2045 14.308 10.0109C14.5883 9.42484 14.1679 8.75125 13.5197 8.75125C13.1957 8.75125 12.8891 8.9262 12.749 9.21489C12.2404 10.3075 11.3706 11.1919 10.2859 11.7193C9.20112 12.2466 7.96762 12.3847 6.79287 12.1104C4.84839 11.6818 3.28053 10.0984 2.86886 8.15639C2.69581 7.38855 2.69782 6.59167 2.87473 5.82471C3.05164 5.05775 3.39892 4.34032 3.8909 3.72549C4.38288 3.11067 5.00696 2.61417 5.71698 2.27272C6.42701 1.93128 7.2048 1.75363 7.99285 1.75291C9.44683 1.75291 10.7432 2.35651 11.6891 3.31004L10.3665 4.63097C9.81471 5.18209 10.2001 6.12687 10.9796 6.12687H14.1241C14.6058 6.12687 15 5.73321 15 5.25208V2.11157C15 1.33301 14.054 0.939349 13.5022 1.49047L12.9416 2.05908Z" fill="black"/>
</svg>
