<svg width="27" height="29" viewBox="0 0 27 29" fill="none" xmlns="http://www.w3.org/2000/svg">
<path fill-rule="evenodd" clip-rule="evenodd" d="M13.5 0C7.77042 0 3.12568 4.64474 3.12568 10.3743V11.3168C3.12568 12.2498 2.84954 13.1618 2.33205 13.938L0.794505 16.2443C-0.990005 18.9211 0.372319 22.5595 3.47603 23.406C4.48751 23.6818 5.50753 23.9152 6.53346 24.106L6.536 24.1128C7.56539 26.8595 10.3167 28.7803 13.4999 28.7803C16.6831 28.7803 19.4344 26.8595 20.4638 24.1128L20.4663 24.106C21.4923 23.9152 22.5124 23.6818 23.5239 23.406C26.6277 22.5595 27.99 18.9211 26.2055 16.2443L24.6679 13.938C24.1504 13.1618 23.8743 12.2498 23.8743 11.3168V10.3743C23.8743 4.64474 19.2296 0 13.5 0ZM18.0197 24.4793C15.0173 24.838 11.9825 24.838 8.98007 24.4793C9.93177 25.8467 11.5871 26.7724 13.4999 26.7724C15.4127 26.7724 17.068 25.8467 18.0197 24.4793ZM5.13361 10.3743C5.13361 5.75369 8.87937 2.00793 13.5 2.00793C18.1206 2.00793 21.8664 5.75369 21.8664 10.3743V11.3168C21.8664 12.6462 22.2599 13.9458 22.9972 15.0518L24.5348 17.3581C25.5591 18.8946 24.7771 20.9829 22.9956 21.4688C16.7787 23.1643 10.2212 23.1643 4.00435 21.4688C2.22288 20.9829 1.44093 18.8946 2.4652 17.3581L4.00275 15.0518C4.74013 13.9458 5.13361 12.6462 5.13361 11.3168V10.3743Z" fill="white"/>
</svg>
