<svg width="47" height="16" viewBox="0 0 47 16" fill="none" xmlns="http://www.w3.org/2000/svg">
<path fill-rule="evenodd" clip-rule="evenodd" d="M24.2931 4.93033C24.2931 1.73141 27.2753 0 30.6125 0C32.7498 0 34.2653 0.654436 34.2653 0.654436L33.5913 3.7722C33.5913 3.7722 32.1984 3.06629 30.4913 3.06629C28.9782 3.06629 28.2489 3.73235 28.2489 4.34023C28.2489 5.023 29.095 5.47242 30.1119 6.01249C31.6426 6.8255 33.5601 7.84395 33.5601 10.1732C33.5601 13.4268 30.6891 15.2432 27.0405 15.2432C24.5788 15.2432 22.7247 14.4233 22.7247 14.4233L23.4134 11.1953C23.4134 11.1953 25.0229 12.1659 27.1764 12.1659C28.6938 12.1659 29.5822 11.4713 29.5822 10.6953C29.5822 9.9308 28.6722 9.43985 27.6071 8.86522C26.1044 8.05449 24.2931 7.07721 24.2931 4.93033ZM40.7116 0.235402C39.7927 0.235402 39.3058 0.727851 38.9486 1.58839L33.3656 15.0007H37.3618L38.135 12.7653H43.0036L43.4737 15.0007H46.9998L43.9237 0.235402H40.7116ZM41.2312 4.22629L42.4158 9.76694H39.2423L41.2312 4.22629ZM19.4579 0.235271L16.323 15.0005H20.1337L23.2576 0.235271H19.4579ZM0 0.705876L0.0808063 0.235271H6.45165C7.37165 0.235271 8.12325 0.790833 8.27163 1.76474L9.88959 10.2742L13.8546 0.235271H17.8509L11.6802 15.0005H7.67477L4.68677 3.47068C4.41256 2.40693 4.29658 2.06444 2.66845 1.47613C1.40396 0.963074 0 0.705876 0 0.705876Z" fill="#1434CB"/>
</svg>
