<svg width="49" height="181" viewBox="0 0 49 181" fill="none" xmlns="http://www.w3.org/2000/svg">
<path d="M6.08283 5.83444L7.92308 2.12844C7.97665 2.02119 8.05904 1.93098 8.161 1.86793C8.26297 1.80488 8.38049 1.77148 8.50037 1.77148C8.62026 1.77148 8.73777 1.80488 8.83974 1.86793C8.94171 1.93098 9.0241 2.02119 9.07766 2.12844L10.9179 5.83444L15.0319 6.43228C15.1506 6.44873 15.2622 6.49822 15.3541 6.57508C15.446 6.65195 15.5144 6.75311 15.5516 6.867C15.5887 6.98089 15.5931 7.10294 15.5642 7.2192C15.5353 7.33547 15.4743 7.44127 15.3882 7.52453L12.4118 10.4074L13.1145 14.4804C13.2044 15.0031 12.6519 15.4012 12.1795 15.1547L8.50037 13.2309L4.82058 15.1547C4.34883 15.4019 3.79633 15.0031 3.88629 14.4797L4.58896 10.4067L1.61254 7.52382C1.52682 7.4405 1.4662 7.33481 1.43755 7.21875C1.40891 7.10269 1.41341 6.98093 1.45052 6.8673C1.48764 6.75366 1.55588 6.65273 1.64751 6.57595C1.73913 6.49917 1.85046 6.44964 1.96883 6.43299L6.08283 5.83444Z" fill="#CBA13D"/>
<path d="M22.0828 5.83444L23.9231 2.12844C23.9766 2.02119 24.059 1.93098 24.161 1.86793C24.263 1.80488 24.3805 1.77148 24.5004 1.77148C24.6203 1.77148 24.7378 1.80488 24.8397 1.86793C24.9417 1.93098 25.0241 2.02119 25.0777 2.12844L26.9179 5.83444L31.0319 6.43228C31.1506 6.44873 31.2622 6.49822 31.3541 6.57508C31.446 6.65195 31.5144 6.75311 31.5516 6.867C31.5887 6.98089 31.5931 7.10294 31.5642 7.2192C31.5353 7.33547 31.4743 7.44127 31.3882 7.52453L28.4118 10.4074L29.1145 14.4804C29.2044 15.0031 28.6519 15.4012 28.1795 15.1547L24.5004 13.2309L20.8206 15.1547C20.3488 15.4019 19.7963 15.0031 19.8863 14.4797L20.589 10.4067L17.6125 7.52382C17.5268 7.4405 17.4662 7.33481 17.4376 7.21875C17.4089 7.10269 17.4134 6.98093 17.4505 6.8673C17.4876 6.75366 17.5559 6.65273 17.6475 6.57595C17.7391 6.49917 17.8505 6.44964 17.9688 6.43299L22.0828 5.83444Z" fill="#CBA13D"/>
<path d="M38.0828 5.83444L39.9231 2.12844C39.9766 2.02119 40.059 1.93098 40.161 1.86793C40.263 1.80488 40.3805 1.77148 40.5004 1.77148C40.6203 1.77148 40.7378 1.80488 40.8397 1.86793C40.9417 1.93098 41.0241 2.02119 41.0777 2.12844L42.9179 5.83444L47.0319 6.43228C47.1506 6.44873 47.2622 6.49822 47.3541 6.57508C47.446 6.65195 47.5144 6.75311 47.5516 6.867C47.5887 6.98089 47.5931 7.10294 47.5642 7.2192C47.5353 7.33547 47.4743 7.44127 47.3882 7.52453L44.4118 10.4074L45.1145 14.4804C45.2044 15.0031 44.6519 15.4012 44.1795 15.1547L40.5004 13.2309L36.8206 15.1547C36.3488 15.4019 35.7963 15.0031 35.8863 14.4797L36.589 10.4067L33.6125 7.52382C33.5268 7.4405 33.4662 7.33481 33.4376 7.21875C33.4089 7.10269 33.4134 6.98093 33.4505 6.8673C33.4876 6.75366 33.5559 6.65273 33.6475 6.57595C33.7391 6.49917 33.8505 6.44964 33.9688 6.43299L38.0828 5.83444Z" fill="#CBA13D"/>
<path d="M6.08283 87.8344L7.92308 84.1284C7.97665 84.0212 8.05904 83.931 8.161 83.8679C8.26297 83.8049 8.38049 83.7715 8.50037 83.7715C8.62026 83.7715 8.73777 83.8049 8.83974 83.8679C8.94171 83.931 9.0241 84.0212 9.07766 84.1284L10.9179 87.8344L15.0319 88.4323C15.1506 88.4487 15.2622 88.4982 15.3541 88.5751C15.446 88.652 15.5144 88.7531 15.5516 88.867C15.5887 88.9809 15.5931 89.1029 15.5642 89.2192C15.5353 89.3355 15.4743 89.4413 15.3882 89.5245L12.4118 92.4074L13.1145 96.4804C13.2044 97.0031 12.6519 97.4012 12.1795 97.1547L8.50037 95.2309L4.82058 97.1547C4.34883 97.4019 3.79633 97.0031 3.88629 96.4797L4.58896 92.4067L1.61254 89.5238C1.52682 89.4405 1.4662 89.3348 1.43755 89.2187C1.40891 89.1027 1.41341 88.9809 1.45052 88.8673C1.48764 88.7537 1.55588 88.6527 1.64751 88.5759C1.73913 88.4992 1.85046 88.4496 1.96883 88.433L6.08283 87.8344Z" fill="#CBA13D"/>
<path d="M22.0828 87.8344L23.9231 84.1284C23.9766 84.0212 24.059 83.931 24.161 83.8679C24.263 83.8049 24.3805 83.7715 24.5004 83.7715C24.6203 83.7715 24.7378 83.8049 24.8397 83.8679C24.9417 83.931 25.0241 84.0212 25.0777 84.1284L26.9179 87.8344L31.0319 88.4323C31.1506 88.4487 31.2622 88.4982 31.3541 88.5751C31.446 88.652 31.5144 88.7531 31.5516 88.867C31.5887 88.9809 31.5931 89.1029 31.5642 89.2192C31.5353 89.3355 31.4743 89.4413 31.3882 89.5245L28.4118 92.4074L29.1145 96.4804C29.2044 97.0031 28.6519 97.4012 28.1795 97.1547L24.5004 95.2309L20.8206 97.1547C20.3488 97.4019 19.7963 97.0031 19.8863 96.4797L20.589 92.4067L17.6125 89.5238C17.5268 89.4405 17.4662 89.3348 17.4376 89.2187C17.4089 89.1027 17.4134 88.9809 17.4505 88.8673C17.4876 88.7537 17.5559 88.6527 17.6475 88.5759C17.7391 88.4992 17.8505 88.4496 17.9688 88.433L22.0828 87.8344Z" fill="#CBA13D"/>
<path d="M38.0828 87.8344L39.9231 84.1284C39.9766 84.0212 40.059 83.931 40.161 83.8679C40.263 83.8049 40.3805 83.7715 40.5004 83.7715C40.6203 83.7715 40.7378 83.8049 40.8397 83.8679C40.9417 83.931 41.0241 84.0212 41.0777 84.1284L42.9179 87.8344L47.0319 88.4323C47.1506 88.4487 47.2622 88.4982 47.3541 88.5751C47.446 88.652 47.5144 88.7531 47.5516 88.867C47.5887 88.9809 47.5931 89.1029 47.5642 89.2192C47.5353 89.3355 47.4743 89.4413 47.3882 89.5245L44.4118 92.4074L45.1145 96.4804C45.2044 97.0031 44.6519 97.4012 44.1795 97.1547L40.5004 95.2309L36.8206 97.1547C36.3488 97.4019 35.7963 97.0031 35.8863 96.4797L36.589 92.4067L33.6125 89.5238C33.5268 89.4405 33.4662 89.3348 33.4376 89.2187C33.4089 89.1027 33.4134 88.9809 33.4505 88.8673C33.4876 88.7537 33.5559 88.6527 33.6475 88.5759C33.7391 88.4992 33.8505 88.4496 33.9688 88.433L38.0828 87.8344Z" fill="#CBA13D"/>
<path d="M6.08283 169.834L7.92308 166.128C7.97665 166.021 8.05904 165.931 8.161 165.868C8.26297 165.805 8.38049 165.771 8.50037 165.771C8.62026 165.771 8.73777 165.805 8.83974 165.868C8.94171 165.931 9.0241 166.021 9.07766 166.128L10.9179 169.834L15.0319 170.432C15.1506 170.449 15.2622 170.498 15.3541 170.575C15.446 170.652 15.5144 170.753 15.5516 170.867C15.5887 170.981 15.5931 171.103 15.5642 171.219C15.5353 171.335 15.4743 171.441 15.3882 171.525L12.4118 174.407L13.1145 178.48C13.2044 179.003 12.6519 179.401 12.1795 179.155L8.50037 177.231L4.82058 179.155C4.34883 179.402 3.79633 179.003 3.88629 178.48L4.58896 174.407L1.61254 171.524C1.52682 171.441 1.4662 171.335 1.43755 171.219C1.40891 171.103 1.41341 170.981 1.45052 170.867C1.48764 170.754 1.55588 170.653 1.64751 170.576C1.73913 170.499 1.85046 170.45 1.96883 170.433L6.08283 169.834Z" fill="#CBA13D"/>
<path d="M22.0828 169.834L23.9231 166.128C23.9766 166.021 24.059 165.931 24.161 165.868C24.263 165.805 24.3805 165.771 24.5004 165.771C24.6203 165.771 24.7378 165.805 24.8397 165.868C24.9417 165.931 25.0241 166.021 25.0777 166.128L26.9179 169.834L31.0319 170.432C31.1506 170.449 31.2622 170.498 31.3541 170.575C31.446 170.652 31.5144 170.753 31.5516 170.867C31.5887 170.981 31.5931 171.103 31.5642 171.219C31.5353 171.335 31.4743 171.441 31.3882 171.525L28.4118 174.407L29.1145 178.48C29.2044 179.003 28.6519 179.401 28.1795 179.155L24.5004 177.231L20.8206 179.155C20.3488 179.402 19.7963 179.003 19.8863 178.48L20.589 174.407L17.6125 171.524C17.5268 171.441 17.4662 171.335 17.4376 171.219C17.4089 171.103 17.4134 170.981 17.4505 170.867C17.4876 170.754 17.5559 170.653 17.6475 170.576C17.7391 170.499 17.8505 170.45 17.9688 170.433L22.0828 169.834Z" fill="#CBA13D"/>
<path d="M38.0828 169.834L39.9231 166.128C39.9766 166.021 40.059 165.931 40.161 165.868C40.263 165.805 40.3805 165.771 40.5004 165.771C40.6203 165.771 40.7378 165.805 40.8397 165.868C40.9417 165.931 41.0241 166.021 41.0777 166.128L42.9179 169.834L47.0319 170.432C47.1506 170.449 47.2622 170.498 47.3541 170.575C47.446 170.652 47.5144 170.753 47.5516 170.867C47.5887 170.981 47.5931 171.103 47.5642 171.219C47.5353 171.335 47.4743 171.441 47.3882 171.525L44.4118 174.407L45.1145 178.48C45.2044 179.003 44.6519 179.401 44.1795 179.155L40.5004 177.231L36.8206 179.155C36.3488 179.402 35.7963 179.003 35.8863 178.48L36.589 174.407L33.6125 171.524C33.5268 171.441 33.4662 171.335 33.4376 171.219C33.4089 171.103 33.4134 170.981 33.4505 170.867C33.4876 170.754 33.5559 170.653 33.6475 170.576C33.7391 170.499 33.8505 170.45 33.9688 170.433L38.0828 169.834Z" fill="#CBA13D"/>
</svg>
