<svg width="58" height="58" viewBox="0 0 58 58" fill="none" xmlns="http://www.w3.org/2000/svg">
<path d="M52.696 24.2665H50.7494V24.1662H28.9995V33.8328H42.6572C40.6647 39.46 35.3106 43.4994 28.9995 43.4994C20.9919 43.4994 14.4996 37.0071 14.4996 28.9995C14.4996 20.9919 20.9919 14.4996 28.9995 14.4996C32.6958 14.4996 36.0586 15.894 38.619 18.1717L45.4545 11.3361C41.1384 7.31362 35.365 4.83292 28.9995 4.83292C15.6535 4.83292 4.83292 15.6535 4.83292 28.9995C4.83292 42.3455 15.6535 53.1661 28.9995 53.1661C42.3455 53.1661 53.1661 42.3455 53.1661 28.9995C53.1661 27.3791 52.9993 25.7974 52.696 24.2665Z" fill="#FFC107"/>
<path d="M7.62001 17.7512L15.5599 23.5741C17.7083 18.255 22.9114 14.4996 29.0002 14.4996C32.6965 14.4996 36.0592 15.894 38.6197 18.1717L45.4552 11.3361C41.139 7.31362 35.3657 4.83292 29.0002 4.83292C19.7178 4.83292 11.6679 10.0734 7.62001 17.7512Z" fill="#FF3D00"/>
<path d="M28.9996 53.1673C35.2418 53.1673 40.9137 50.7784 45.2021 46.8936L37.7225 40.5644C35.2147 42.4716 32.1503 43.5032 28.9996 43.5007C22.7139 43.5007 17.3767 39.4926 15.366 33.8993L7.48533 39.9711C11.4849 47.7975 19.6073 53.1673 28.9996 53.1673Z" fill="#4CAF50"/>
<path d="M52.696 24.2669H50.7494V24.1666H28.9995V33.8332H42.6572C41.7041 36.5114 39.9873 38.8516 37.7188 40.5648L37.7224 40.5624L45.202 46.8916C44.6727 47.3725 53.1661 41.0832 53.1661 28.9999C53.1661 27.3795 52.9993 25.7978 52.696 24.2669Z" fill="#1976D2"/>
</svg>
