<svg width="13" height="13" viewBox="0 0 13 13" fill="none" xmlns="http://www.w3.org/2000/svg">
<g clip-path="url(#clip0_68_4222)">
<path d="M11.099 1.90296C8.56434 -0.631714 4.43881 -0.631714 1.90414 1.90296C0.676337 3.13124 0 4.76395 0 6.50038C0 8.23681 0.676337 9.86952 1.90414 11.0973C3.17173 12.3649 4.83666 12.9984 6.50156 12.9984C8.16647 12.9984 9.83142 12.3649 11.099 11.0973C13.6337 8.56265 13.6337 4.43811 11.099 1.90296ZM10.3869 10.3852C8.24454 12.5276 4.75858 12.5276 2.61622 10.3852C1.5788 9.34779 1.00721 7.9679 1.00721 6.50038C1.00721 5.03286 1.5788 3.65297 2.61622 2.61504C4.75858 0.472687 8.24454 0.473195 10.3869 2.61504C12.5287 4.7574 12.5287 8.24336 10.3869 10.3852Z" fill="#737373"/>
<path d="M8.67144 7.89297L7.24572 6.46928L8.67144 5.04559C8.86784 4.84919 8.86784 4.53041 8.67195 4.33348C8.47504 4.13607 8.15626 4.13657 7.95935 4.33297L6.53264 5.75768L5.10592 4.33297C4.90902 4.13657 4.59024 4.13607 4.39333 4.33348C4.19693 4.53039 4.19693 4.84917 4.39384 5.04559L5.81956 6.46928L4.39384 7.89297C4.19693 8.08937 4.19693 8.40815 4.39333 8.60509C4.49154 8.70378 4.62096 8.75263 4.74989 8.75263C4.87883 8.75263 5.00774 8.70327 5.10595 8.60557L6.53266 7.18086L7.95938 8.60557C8.05759 8.70378 8.1865 8.75263 8.31543 8.75263C8.44437 8.75263 8.57379 8.70327 8.672 8.60509C8.86834 8.40815 8.86834 8.08937 8.67144 7.89297Z" fill="#737373"/>
</g>
<defs>
<clipPath id="clip0_68_4222">
<rect width="13" height="13" fill="white"/>
</clipPath>
</defs>
</svg>
