<svg width="49" height="49" viewBox="0 0 49 49" fill="none" xmlns="http://www.w3.org/2000/svg">
<path d="M24.5 0C10.9918 0 0 10.9887 0 24.4985C0 38.0082 10.9918 48.9969 24.5 48.9969C38.0082 48.9969 49 38.0082 49 24.4985C49 10.9887 38.0082 0 24.5 0ZM24.5 47.3651C11.8917 47.3651 1.63486 37.1068 1.63486 24.4985C1.63486 11.8902 11.8917 1.63181 24.5 1.63181C37.1083 1.63181 47.3651 11.8902 47.3651 24.4985C47.3651 37.1068 37.1083 47.3651 24.5 47.3651Z" fill="black"/>
<path d="M29.8474 10.7462H25.771C20.5791 10.6942 19.916 13.9074 19.916 17.3849V19.9136H17.6242C17.5206 19.8998 17.4152 19.91 17.3162 19.9435C17.2172 19.977 17.1273 20.0329 17.0534 20.1068C16.9795 20.1807 16.9236 20.2706 16.8901 20.3696C16.8566 20.4686 16.8464 20.574 16.8602 20.6776V25.2613C16.8464 25.3649 16.8566 25.4703 16.8901 25.5693C16.9236 25.6683 16.9795 25.7582 17.0534 25.8321C17.1273 25.906 17.2172 25.9619 17.3162 25.9954C17.4152 26.0289 17.5206 26.0391 17.6242 26.0253H19.916V37.4846C19.9033 37.5883 19.9145 37.6937 19.9486 37.7925C19.9828 37.8913 20.0392 37.9809 20.1133 38.0547C20.1875 38.1284 20.2775 38.1841 20.3765 38.2177C20.4755 38.2513 20.5809 38.2619 20.6846 38.2485H25.3523C25.8031 38.3005 26.1682 37.9353 26.0246 37.4846L26.0277 26.0253H29.8474C29.951 26.0391 30.0564 26.0289 30.1554 25.9954C30.2544 25.9619 30.3443 25.906 30.4182 25.8321C30.4921 25.7582 30.548 25.6683 30.5815 25.5693C30.615 25.4703 30.6252 25.3649 30.6114 25.2613V20.6776C30.6252 20.574 30.615 20.4686 30.5815 20.3696C30.548 20.2706 30.4921 20.1807 30.4182 20.1068C30.3443 20.0329 30.2544 19.977 30.1554 19.9435C30.0564 19.91 29.951 19.8998 29.8474 19.9136H26.0231L26.0277 17.6218C26.1759 16.6454 26.1759 16.8043 27.0819 16.8578H29.8153C30.0277 16.8105 30.2538 16.8364 30.4128 16.6821C30.5717 16.5278 30.6633 16.3169 30.6099 16.0939V11.5101C30.624 11.4066 30.614 11.3013 30.5807 11.2023C30.5474 11.1033 30.4916 11.0133 30.4178 10.9393C30.3441 10.8654 30.2542 10.8095 30.1552 10.776C30.0563 10.7425 29.951 10.7323 29.8474 10.7462ZM29.03 15.2444L27.114 15.171C24.7412 15.171 24.5425 16.459 24.5425 17.7776L24.5364 20.6745C24.5362 20.7818 24.5572 20.8881 24.5981 20.9872C24.639 21.0864 24.6991 21.1765 24.7749 21.2525C24.8506 21.3284 24.9406 21.3886 25.0397 21.4297C25.1388 21.4708 25.245 21.492 25.3523 21.492H29.0835V24.4439H25.3554C25.1388 24.4439 24.9312 24.5298 24.7779 24.6828C24.6247 24.8357 24.5383 25.0433 24.5379 25.2598L24.5364 36.7206H21.4439V25.2613C21.4439 24.8106 21.1368 24.4454 20.6846 24.4454H18.3881V21.4935H20.6846C20.7918 21.4937 20.898 21.4727 20.9971 21.4318C21.0962 21.3909 21.1862 21.3309 21.2621 21.2551C21.4149 21.1008 21.4424 20.893 21.4424 20.6761V17.3834C21.4424 13.9579 22.1345 12.326 25.7694 12.326H29.0285L29.03 15.2444Z" fill="black"/>
</svg>
