<svg width="108" height="23" viewBox="0 0 108 23" fill="none" xmlns="http://www.w3.org/2000/svg">
<path d="M8.11084 7.77871L10.5645 2.83738C10.6359 2.69438 10.7458 2.5741 10.8817 2.49003C11.0177 2.40597 11.1744 2.36144 11.3342 2.36144C11.4941 2.36144 11.6508 2.40597 11.7867 2.49003C11.9227 2.5741 12.0325 2.69438 12.1039 2.83738L14.5576 7.77871L20.0429 8.57582C20.2012 8.59776 20.35 8.66374 20.4725 8.76623C20.5951 8.86872 20.6863 9.00359 20.7358 9.15545C20.7854 9.30731 20.7912 9.47003 20.7527 9.62505C20.7142 9.78007 20.6328 9.92114 20.518 10.0322L16.5494 13.876L17.4863 19.3066C17.6063 20.0036 16.8696 20.5344 16.2397 20.2057L11.3342 17.6406L6.42784 20.2057C5.79884 20.5353 5.06218 20.0036 5.18212 19.3056L6.11901 13.8751L2.15046 10.0312C2.03617 9.92012 1.95533 9.77919 1.91715 9.62445C1.87896 9.46971 1.88495 9.30735 1.93444 9.15584C1.98392 9.00434 2.07492 8.86975 2.19708 8.76738C2.31925 8.66502 2.46768 8.59897 2.62551 8.57676L8.11084 7.77871Z" fill="#13131A" fill-opacity="0.5"/>
<path d="M29.4436 7.77871L31.8973 2.83738C31.9687 2.69438 32.0786 2.5741 32.2145 2.49003C32.3505 2.40597 32.5072 2.36144 32.667 2.36144C32.8269 2.36144 32.9836 2.40597 33.1195 2.49003C33.2555 2.5741 33.3653 2.69438 33.4367 2.83738L35.8904 7.77871L41.3757 8.57582C41.534 8.59776 41.6828 8.66374 41.8053 8.76623C41.9278 8.86872 42.0191 9.00359 42.0686 9.15545C42.1182 9.30731 42.124 9.47003 42.0855 9.62505C42.047 9.78007 41.9656 9.92114 41.8508 10.0322L37.8822 13.876L38.8191 19.3066C38.9391 20.0036 38.2024 20.5344 37.5725 20.2057L32.667 17.6406L27.7606 20.2057C27.1316 20.5353 26.395 20.0036 26.5149 19.3056L27.4518 13.8751L23.4833 10.0312C23.369 9.92012 23.2881 9.77919 23.2499 9.62445C23.2118 9.46971 23.2177 9.30735 23.2672 9.15584C23.3167 9.00434 23.4077 8.86975 23.5299 8.76738C23.652 8.66502 23.8005 8.59897 23.9583 8.57676L29.4436 7.77871Z" fill="#13131A" fill-opacity="0.5"/>
<path d="M50.7764 7.77871L53.2301 2.83738C53.3015 2.69438 53.4114 2.5741 53.5473 2.49003C53.6833 2.40597 53.84 2.36144 53.9998 2.36144C54.1597 2.36144 54.3164 2.40597 54.4523 2.49003C54.5883 2.5741 54.6981 2.69438 54.7695 2.83738L57.2232 7.77871L62.7085 8.57582C62.8667 8.59776 63.0156 8.66374 63.1381 8.76623C63.2606 8.86872 63.3519 9.00359 63.4014 9.15545C63.4509 9.30731 63.4568 9.47003 63.4183 9.62505C63.3798 9.78007 63.2984 9.92114 63.1836 10.0322L59.215 13.876L60.1519 19.3066C60.2719 20.0036 59.5352 20.5344 58.9053 20.2057L53.9998 17.6406L49.0934 20.2057C48.4644 20.5353 47.7278 20.0036 47.8477 19.3056L48.7846 13.8751L44.816 10.0312C44.7018 9.92012 44.6209 9.77919 44.5827 9.62445C44.5445 9.46971 44.5505 9.30735 44.6 9.15584C44.6495 9.00434 44.7405 8.86975 44.8627 8.76738C44.9848 8.66502 45.1333 8.59897 45.2911 8.57676L50.7764 7.77871Z" fill="#13131A" fill-opacity="0.5"/>
<path d="M72.1096 7.77871L74.5633 2.83738C74.6347 2.69438 74.7445 2.5741 74.8805 2.49003C75.0164 2.40597 75.1731 2.36144 75.333 2.36144C75.4928 2.36144 75.6495 2.40597 75.7855 2.49003C75.9214 2.5741 76.0313 2.69438 76.1027 2.83738L78.5564 7.77871L84.0417 8.57582C84.1999 8.59776 84.3488 8.66374 84.4713 8.76623C84.5938 8.86872 84.685 9.00359 84.7346 9.15545C84.7841 9.30731 84.79 9.47003 84.7514 9.62505C84.7129 9.78007 84.6316 9.92114 84.5167 10.0322L80.5482 13.876L81.4851 19.3066C81.605 20.0036 80.8684 20.5344 80.2384 20.2057L75.333 17.6406L70.4266 20.2057C69.7976 20.5353 69.0609 20.0036 69.1809 19.3056L70.1178 13.8751L66.1492 10.0312C66.0349 9.92012 65.9541 9.77919 65.9159 9.62445C65.8777 9.46971 65.8837 9.30735 65.9332 9.15584C65.9827 9.00434 66.0737 8.86975 66.1958 8.76738C66.318 8.66502 66.4664 8.59897 66.6243 8.57676L72.1096 7.77871Z" fill="#13131A" fill-opacity="0.5"/>
<path d="M93.4434 7.77871L95.897 2.83738C95.9685 2.69438 96.0783 2.5741 96.2143 2.49003C96.3502 2.40597 96.5069 2.36144 96.6668 2.36144C96.8266 2.36144 96.9833 2.40597 97.1192 2.49003C97.2552 2.5741 97.365 2.69438 97.4365 2.83738L99.8901 7.77871L105.375 8.57582C105.534 8.59776 105.683 8.66374 105.805 8.76623C105.928 8.86872 106.019 9.00359 106.068 9.15545C106.118 9.30731 106.124 9.47003 106.085 9.62505C106.047 9.78007 105.965 9.92114 105.851 10.0322L101.882 13.876L102.819 19.3066C102.939 20.0036 102.202 20.5344 101.572 20.2057L96.6668 17.6406L91.7604 20.2057C91.1314 20.5353 90.3947 20.0036 90.5146 19.3056L91.4515 13.8751L87.483 10.0312C87.3687 9.92012 87.2879 9.77919 87.2497 9.62445C87.2115 9.46971 87.2175 9.30735 87.267 9.15584C87.3164 9.00434 87.4074 8.86975 87.5296 8.76738C87.6518 8.66502 87.8002 8.59897 87.958 8.57676L93.4434 7.77871Z" fill="#13131A" fill-opacity="0.5"/>
</svg>
