<svg width="27" height="27" viewBox="0 0 27 27" fill="none" xmlns="http://www.w3.org/2000/svg">
<path fill-rule="evenodd" clip-rule="evenodd" d="M1.40625 7.8979C1.40625 4.96064 3.71654 2.53125 6.625 2.53125H20.375C23.2835 2.53125 25.5938 4.96064 25.5938 7.8979C25.5938 10.1793 24.2031 12.1505 22.2188 12.9202V18.0585C22.2188 18.4077 22.2188 18.7368 22.2151 19.0457C22.2175 19.0718 22.2188 19.0983 22.2188 19.125C22.2188 19.1603 22.2166 19.1951 22.2124 19.2293C22.2033 19.7387 22.1815 20.1897 22.1288 20.5813C22.0339 21.2876 21.825 21.9252 21.3126 22.4376C20.8002 22.95 20.1626 23.1589 19.4563 23.2538C18.7872 23.3438 17.9443 23.3438 16.9335 23.3438H10.0665C9.05571 23.3438 8.21284 23.3438 7.54371 23.2538C6.83744 23.1589 6.19979 22.95 5.68739 22.4376C5.17498 21.9252 4.96611 21.2876 4.87115 20.5813C4.81851 20.1897 4.79668 19.7387 4.78763 19.2293C4.78342 19.1951 4.78125 19.1603 4.78125 19.125C4.78125 19.0983 4.78249 19.0718 4.78493 19.0457C4.78123 18.7368 4.78124 18.4077 4.78125 18.0585L4.78125 12.9202C2.79691 12.1505 1.40625 10.1793 1.40625 7.8979ZM4.78126 11.0357C4.78145 10.0938 4.78585 9.30317 4.87115 8.66871C4.96611 7.96244 5.17498 7.32479 5.68739 6.81239C6.19979 6.29998 6.83744 6.09111 7.54371 5.99615C8.21284 5.90619 9.05571 5.90622 10.0665 5.90625H16.9335C17.9443 5.90622 18.7872 5.90619 19.4563 5.99615C20.1626 6.09111 20.8002 6.29998 21.3126 6.81239C21.825 7.32479 22.0339 7.96244 22.1288 8.66871C22.2142 9.30317 22.2185 10.0938 22.2187 11.0357C23.2244 10.3927 23.9062 9.23661 23.9062 7.8979C23.9062 5.8393 22.299 4.21875 20.375 4.21875H6.625C4.70097 4.21875 3.09375 5.8393 3.09375 7.8979C3.09375 9.23661 3.77562 10.3927 4.78126 11.0357ZM12.6562 7.59375H10.125C9.04049 7.59375 8.31198 7.59554 7.76857 7.6686C7.24942 7.7384 7.02724 7.85903 6.88063 8.00563C6.73403 8.15224 6.6134 8.37442 6.5436 8.89357C6.47054 9.43698 6.46875 10.1655 6.46875 11.25V18C6.46875 18.0965 6.46876 18.1902 6.46884 18.2812H20.5312C20.5312 18.1902 20.5312 18.0965 20.5312 18V11.25C20.5312 10.1655 20.5295 9.43698 20.4564 8.89357C20.3866 8.37442 20.266 8.15224 20.1194 8.00563C19.9728 7.85903 19.7506 7.7384 19.2314 7.6686C18.688 7.59554 17.9595 7.59375 16.875 7.59375H14.3438V12.3441L15.1094 11.4509C15.4126 11.0971 15.9453 11.0561 16.2991 11.3594C16.6529 11.6626 16.6939 12.1953 16.3906 12.5491L14.1406 15.1741C13.9803 15.3611 13.7463 15.4688 13.5 15.4688C13.2537 15.4688 13.0197 15.3611 12.8594 15.1741L10.6094 12.5491C10.3061 12.1953 10.3471 11.6626 10.7009 11.3594C11.0547 11.0561 11.5874 11.0971 11.8906 11.4509L12.6562 12.3441V7.59375ZM20.495 19.9688H6.50497C6.51488 20.1082 6.52752 20.2368 6.5436 20.3564C6.6134 20.8756 6.73403 21.0978 6.88063 21.2444C7.02724 21.391 7.24942 21.5116 7.76857 21.5814C8.31198 21.6545 9.04049 21.6562 10.125 21.6562H16.875C17.9595 21.6562 18.688 21.6545 19.2314 21.5814C19.7506 21.5116 19.9728 21.391 20.1194 21.2444C20.266 21.0978 20.3866 20.8756 20.4564 20.3564C20.4725 20.2368 20.4851 20.1082 20.495 19.9688Z" fill="#8D98AA"/>
</svg>
