<svg width="19" height="19" viewBox="0 0 19 19" fill="none" xmlns="http://www.w3.org/2000/svg">
<path d="M13.4583 11.0843C13.8956 11.0843 14.25 10.7299 14.25 10.2926C14.25 9.85541 13.8956 9.50097 13.4583 9.50097C13.0211 9.50097 12.6667 9.85541 12.6667 10.2926C12.6667 10.7299 13.0211 11.0843 13.4583 11.0843Z" fill="#545454"/>
<path d="M13.4583 14.251C13.8956 14.251 14.25 13.8965 14.25 13.4593C14.25 13.0221 13.8956 12.6676 13.4583 12.6676C13.0211 12.6676 12.6667 13.0221 12.6667 13.4593C12.6667 13.8965 13.0211 14.251 13.4583 14.251Z" fill="#545454"/>
<path d="M10.2917 10.2926C10.2917 10.7299 9.93723 11.0843 9.5 11.0843C9.06278 11.0843 8.70833 10.7299 8.70833 10.2926C8.70833 9.85541 9.06278 9.50097 9.5 9.50097C9.93723 9.50097 10.2917 9.85541 10.2917 10.2926Z" fill="#545454"/>
<path d="M10.2917 13.4593C10.2917 13.8965 9.93723 14.251 9.5 14.251C9.06278 14.251 8.70833 13.8965 8.70833 13.4593C8.70833 13.0221 9.06278 12.6676 9.5 12.6676C9.93723 12.6676 10.2917 13.0221 10.2917 13.4593Z" fill="#545454"/>
<path d="M5.54167 11.0843C5.97889 11.0843 6.33333 10.7299 6.33333 10.2926C6.33333 9.85541 5.97889 9.50097 5.54167 9.50097C5.10444 9.50097 4.75 9.85541 4.75 10.2926C4.75 10.7299 5.10444 11.0843 5.54167 11.0843Z" fill="#545454"/>
<path d="M5.54167 14.251C5.97889 14.251 6.33333 13.8965 6.33333 13.4593C6.33333 13.0221 5.97889 12.6676 5.54167 12.6676C5.10444 12.6676 4.75 13.0221 4.75 13.4593C4.75 13.8965 5.10444 14.251 5.54167 14.251Z" fill="#545454"/>
<path fill-rule="evenodd" clip-rule="evenodd" d="M5.54167 1.38639C5.86959 1.38639 6.13542 1.65222 6.13542 1.98014V2.58396C6.6595 2.57388 7.23689 2.57388 7.87191 2.57389H11.128C11.763 2.57388 12.3405 2.57388 12.8646 2.58396V1.98014C12.8646 1.65222 13.1304 1.38639 13.4583 1.38639C13.7863 1.38639 14.0521 1.65222 14.0521 1.98014V2.63492C14.2579 2.65061 14.4527 2.67033 14.6371 2.69512C15.5653 2.81991 16.3166 3.08283 16.909 3.67529C17.5015 4.26774 17.7644 5.01899 17.8892 5.94716C18.0104 6.84903 18.0104 8.0014 18.0104 9.45628V11.129C18.0104 12.5838 18.0104 13.7362 17.8892 14.6381C17.7644 15.5663 17.5015 16.3175 16.909 16.91C16.3166 17.5024 15.5653 17.7654 14.6371 17.8902C13.7353 18.0114 12.5829 18.0114 11.128 18.0114H7.87201C6.41713 18.0114 5.26473 18.0114 4.36286 17.8902C3.43469 17.7654 2.68344 17.5024 2.09098 16.91C1.49853 16.3175 1.2356 15.5663 1.11081 14.6381C0.989561 13.7362 0.989571 12.5839 0.989583 11.129V9.45631C0.989571 8.00142 0.989561 6.84904 1.11081 5.94716C1.2356 5.01899 1.49853 4.26774 2.09098 3.67529C2.68344 3.08283 3.43469 2.81991 4.36286 2.69512C4.54726 2.67033 4.74213 2.65061 4.94792 2.63492V1.98014C4.94792 1.65222 5.21375 1.38639 5.54167 1.38639ZM4.52109 3.87203C3.7246 3.97912 3.26571 4.17994 2.93067 4.51498C2.59563 4.85002 2.39481 5.30891 2.28773 6.10539C2.26959 6.24028 2.25443 6.38229 2.24175 6.53222H16.7583C16.7456 6.38229 16.7304 6.24028 16.7123 6.10539C16.6052 5.30891 16.4044 4.85002 16.0693 4.51498C15.7343 4.17994 15.2754 3.97912 14.4789 3.87203C13.6653 3.76265 12.5929 3.76139 11.0833 3.76139H7.91667C6.4071 3.76139 5.33466 3.76265 4.52109 3.87203ZM2.17708 9.50097C2.17708 8.82488 2.17734 8.23647 2.18744 7.71972H16.8126C16.8227 8.23647 16.8229 8.82488 16.8229 9.50097V11.0843C16.8229 12.5939 16.8217 13.6663 16.7123 14.4799C16.6052 15.2764 16.4044 15.7353 16.0693 16.0703C15.7343 16.4053 15.2754 16.6062 14.4789 16.7132C13.6653 16.8226 12.5929 16.8239 11.0833 16.8239H7.91667C6.4071 16.8239 5.33466 16.8226 4.52109 16.7132C3.7246 16.6062 3.26571 16.4053 2.93067 16.0703C2.59563 15.7353 2.39481 15.2764 2.28773 14.4799C2.17834 13.6663 2.17708 12.5939 2.17708 11.0843V9.50097Z" fill="#545454"/>
</svg>
