<svg width="61" height="61" viewBox="0 0 61 61" fill="none" xmlns="http://www.w3.org/2000/svg">
<rect width="61" height="61" rx="30.1216" fill="#F7F7F7"/>
<path fill-rule="evenodd" clip-rule="evenodd" d="M52.6033 27.1276C52.9834 27.1276 53.1972 27.2677 53.1972 27.519H53.2031C53.2031 27.6929 53.0784 27.8234 52.8587 27.8717L53.3753 28.3984H52.918L52.4786 27.9056V28.3984H52.1045V27.1276H52.6033ZM52.4725 27.6928H52.5319C52.722 27.6928 52.817 27.6348 52.817 27.5237C52.817 27.4126 52.722 27.3594 52.5379 27.3594H52.4725V27.6928Z" fill="black"/>
<path fill-rule="evenodd" clip-rule="evenodd" d="M51.7386 27.4887C51.7386 27.1371 52.0201 26.8547 52.3768 26.8547C52.7252 26.8547 53.0094 27.1371 53.0094 27.4887C53.0094 27.8403 52.728 28.1255 52.3768 28.1255C52.0257 28.1255 51.7386 27.8403 51.7386 27.4887ZM51.8665 27.4914C51.8665 27.7794 52.095 28.0119 52.3765 28.0119C52.658 28.0119 52.8837 27.7738 52.8837 27.4914C52.8837 27.209 52.6607 26.9709 52.3765 26.9709C52.0922 26.9709 51.8665 27.2035 51.8665 27.4914Z" fill="black"/>
<path fill-rule="evenodd" clip-rule="evenodd" d="M48.869 26.91C50.4694 26.91 51.3876 27.6868 51.3876 29.0352C51.3876 30.1376 50.8128 30.8612 49.7658 31.0759L52.0077 34.1081H50.3001L48.3777 31.2158H48.1965V34.1081H46.8108V26.91H48.869ZM48.1961 30.224H48.6016C49.4888 30.224 49.9587 29.8091 49.9587 29.1095C49.9587 28.41 49.4888 28.0433 48.6231 28.0433H48.1961V30.224Z" fill="black"/>
<path d="M41.9531 34.1081H45.8908V32.8899H43.3388V30.9457H45.7954V29.7275H43.3388V28.1306H45.8908V26.91H41.9531V34.1081Z" fill="black"/>
<path d="M37.8955 31.7441L35.997 26.91H34.4825L37.502 34.2938H38.2485L41.3251 26.91H39.8178L37.8955 31.7441Z" fill="black"/>
<path d="M34.8769 30.5023C34.8769 32.6081 33.1906 34.3135 31.1085 34.3135C29.0264 34.3135 27.3402 32.6057 27.3402 30.5023C27.3402 28.3988 29.0264 26.6886 31.1085 26.6886C33.1906 26.6886 34.8769 28.3964 34.8769 30.4998V30.5023Z" fill="url(#paint0_linear_68_9520)"/>
<g style="mix-blend-mode:multiply" opacity="0.65">
<path d="M34.8769 30.5023C34.8769 32.6081 33.1906 34.3135 31.1085 34.3135C29.0264 34.3135 27.3402 32.6057 27.3402 30.5023C27.3402 28.3988 29.0264 26.6886 31.1085 26.6886C33.1906 26.6886 34.8769 28.3964 34.8769 30.4998V30.5023Z" fill="url(#paint1_linear_68_9520)"/>
</g>
<path d="M21.3919 30.5153C21.3919 32.6308 23.0352 34.2711 25.1483 34.2711C25.7469 34.2711 26.2573 34.1529 26.8893 33.8514V32.199C26.3336 32.7611 25.8423 32.9878 25.2127 32.9878C23.8151 32.9878 22.8229 31.9626 22.8229 30.5057C22.8229 29.1235 23.8461 28.0332 25.1483 28.0332C25.8113 28.0332 26.3122 28.272 26.8893 28.8437V27.1913C26.2812 26.8777 25.7779 26.7499 25.1817 26.7499C23.0781 26.7499 21.3919 28.4239 21.3919 30.5177V30.5153Z" fill="black"/>
<path d="M18.9064 29.672C18.0741 29.3608 17.8284 29.1534 17.8284 28.765C17.8284 28.3115 18.2649 27.9666 18.8635 27.9666C19.2809 27.9666 19.622 28.1402 19.9821 28.5503L20.7095 27.5879C20.1133 27.0596 19.3978 26.7894 18.6179 26.7894C17.3586 26.7894 16.3974 27.6747 16.3974 28.8519C16.3974 29.8433 16.8458 30.3522 18.148 30.825C18.6918 31.018 18.9685 31.1483 19.1068 31.2351C19.3835 31.4184 19.5242 31.6765 19.5242 31.9805C19.5242 32.5642 19.0662 32.996 18.4461 32.996C17.7855 32.996 17.2512 32.6607 16.9317 32.036L16.0349 32.9092C16.6741 33.8596 17.442 34.2793 18.4986 34.2793C19.9415 34.2793 20.9528 33.3096 20.9528 31.9154C20.9528 30.772 20.4853 30.2533 18.9064 29.6696V29.672Z" fill="black"/>
<rect x="14.122" y="26.91" width="1.38808" height="7.19803" fill="black"/>
<path fill-rule="evenodd" clip-rule="evenodd" d="M7.62537 26.91H9.66218C11.9136 26.91 13.483 28.3887 13.4854 30.5115C13.4854 31.5728 13.0036 32.5956 12.1927 33.2759C11.5082 33.8524 10.7307 34.1081 9.65264 34.1081H7.62537V26.91ZM9.38281 32.8898C10.2796 32.8898 10.8472 32.7161 11.2837 32.3181C11.7631 31.8863 12.0516 31.194 12.0516 30.5041C12.0516 29.8142 11.7631 29.1436 11.2837 28.7119C10.8234 28.2921 10.2796 28.1305 9.38281 28.1305H9.01074V32.8898H9.38281Z" fill="black"/>
<defs>
<linearGradient id="paint0_linear_68_9520" x1="35.0801" y1="32.2362" x2="32.4275" y2="28.1321" gradientUnits="userSpaceOnUse">
<stop stop-color="#F9A020"/>
<stop offset="0.25" stop-color="#F89B20"/>
<stop offset="0.53" stop-color="#F68D20"/>
<stop offset="0.62" stop-color="#F68820"/>
<stop offset="0.73" stop-color="#F58120"/>
<stop offset="1" stop-color="#F47521"/>
</linearGradient>
<linearGradient id="paint1_linear_68_9520" x1="36.352" y1="31.5715" x2="32.4674" y2="24.0676" gradientUnits="userSpaceOnUse">
<stop stop-color="#F68820" stop-opacity="0.01"/>
<stop offset="0.11" stop-color="#EE7F22" stop-opacity="0.14"/>
<stop offset="0.31" stop-color="#E37226" stop-opacity="0.35"/>
<stop offset="0.5" stop-color="#DB6829" stop-opacity="0.52"/>
<stop offset="0.69" stop-color="#D5602C" stop-opacity="0.64"/>
<stop offset="0.85" stop-color="#D15C2D" stop-opacity="0.71"/>
<stop offset="0.98" stop-color="#D05B2E" stop-opacity="0.74"/>
</linearGradient>
</defs>
</svg>
