<svg width="24" height="24" viewBox="0 0 24 24" fill="none" xmlns="http://www.w3.org/2000/svg">
<path fill-rule="evenodd" clip-rule="evenodd" d="M14.2469 0.182689C13.7791 0 13.1861 0 12 0C10.8139 0 10.2209 0 9.75308 0.182689C9.12935 0.426275 8.6338 0.893492 8.37544 1.48156C8.2575 1.75001 8.21135 2.0622 8.19328 2.51759C8.16674 3.18682 7.80272 3.80627 7.18758 4.14112C6.57244 4.47596 5.82144 4.46345 5.19346 4.15051C4.76612 3.93756 4.45628 3.81915 4.15072 3.78122C3.48138 3.69814 2.80444 3.86915 2.26883 4.25664C1.86712 4.54726 1.5706 5.03148 0.977562 5.99992C0.384523 6.96836 0.088003 7.45258 0.021912 7.92589C-0.066209 8.55696 0.115176 9.19519 0.526164 9.70018C0.713754 9.93067 0.977398 10.1244 1.38657 10.3668C1.9881 10.7232 2.37514 11.3302 2.3751 12C2.37507 12.6698 1.98804 13.2767 1.38657 13.633C0.977325 13.8755 0.713648 14.0692 0.52604 14.2997C0.115051 14.8047 -0.0663336 15.443 0.0217875 16.074C0.0878783 16.5473 0.384398 17.0316 0.977437 18C1.57048 18.9684 1.867 19.4527 2.2687 19.7433C2.80431 20.1308 3.48125 20.3018 4.1506 20.2187C4.45614 20.1808 4.76596 20.0624 5.19326 19.8494C5.82129 19.5365 6.57234 19.524 7.18752 19.8588C7.8027 20.1937 8.16674 20.8132 8.19329 21.4825C8.21135 21.9378 8.25751 22.25 8.37544 22.5184C8.6338 23.1065 9.12935 23.5737 9.75308 23.8173C10.2209 24 10.8139 24 12 24C13.1861 24 13.7791 24 14.2469 23.8173C14.8706 23.5737 15.3662 23.1065 15.6246 22.5184C15.7425 22.25 15.7887 21.9378 15.8067 21.4824C15.8333 20.8132 16.1972 20.1937 16.8123 19.8588C17.4275 19.5239 18.1786 19.5364 18.8067 19.8494C19.2339 20.0623 19.5437 20.1807 19.8493 20.2186C20.5186 20.3017 21.1956 20.1307 21.7312 19.7432C22.1329 19.4526 22.4294 18.9684 23.0224 17.9999C23.6155 17.0315 23.912 16.5473 23.9781 16.074C24.0662 15.4429 23.8848 14.8046 23.4738 14.2997C23.2862 14.0692 23.0226 13.8754 22.6134 13.633C22.0119 13.2766 21.6249 12.6696 21.6249 11.9999C21.6249 11.3302 22.0119 10.7233 22.6134 10.367C23.0226 10.1246 23.2863 9.93079 23.474 9.70026C23.8849 9.19527 24.0663 8.55704 23.9782 7.92597C23.9121 7.45266 23.6156 6.96844 23.0226 6C22.4295 5.03156 22.133 4.54734 21.7313 4.25672C21.1957 3.86923 20.5187 3.69822 19.8494 3.7813C19.5439 3.81923 19.234 3.93763 18.8067 4.15056C18.1787 4.46351 17.4277 4.47602 16.8125 4.14115C16.1973 3.80629 15.8333 3.18679 15.8067 2.51753C15.7886 2.06217 15.7425 1.75 15.6246 1.48156C15.3662 0.893492 14.8706 0.426275 14.2469 0.182689ZM12 15.6C14.1088 15.6 15.8183 13.9882 15.8183 12C15.8183 10.0118 14.1088 8.4 12 8.4C9.8912 8.4 8.18167 10.0118 8.18167 12C8.18167 13.9882 9.8912 15.6 12 15.6Z" fill="#743C95"/>
</svg>
