<svg width="16" height="18" viewBox="0 0 16 18" fill="none" xmlns="http://www.w3.org/2000/svg">
<path fill-rule="evenodd" clip-rule="evenodd" d="M7.91645 0C5.54304 0 3.61902 1.78051 3.61902 3.97689C3.61902 6.17326 5.54304 7.95378 7.91645 7.95378C10.2899 7.95378 12.2139 6.17326 12.2139 3.97689C12.2139 1.78051 10.2899 0 7.91645 0ZM4.9761 3.97689C4.9761 2.47411 6.29254 1.25586 7.91645 1.25586C9.54036 1.25586 10.8568 2.47411 10.8568 3.97689C10.8568 5.47967 9.54036 6.69792 7.91645 6.69792C6.29254 6.69792 4.9761 5.47967 4.9761 3.97689Z" fill="#743C95"/>
<path fill-rule="evenodd" clip-rule="evenodd" d="M7.91645 9.20964C5.82333 9.20964 3.89489 9.64992 2.4659 10.3938C1.05818 11.1266 0.000121429 12.2371 0.000121429 13.6051L6.14092e-05 13.6905C-0.000960699 14.6632 -0.00224353 15.8841 1.15492 16.7561C1.72442 17.1853 2.52111 17.4905 3.59749 17.6921C4.67687 17.8943 6.08369 18.0007 7.91645 18.0007C9.74922 18.0007 11.156 17.8943 12.2354 17.6921C13.3118 17.4905 14.1085 17.1853 14.678 16.7561C15.8352 15.8841 15.8339 14.6633 15.8328 13.6905L15.8328 13.6051C15.8328 12.2371 14.7747 11.1266 13.367 10.3938C11.938 9.64992 10.0096 9.20964 7.91645 9.20964ZM1.35721 13.6051C1.35721 12.8924 1.91938 12.1192 3.13123 11.4884C4.3218 10.8686 6.01226 10.4655 7.91645 10.4655C9.82065 10.4655 11.5111 10.8686 12.7017 11.4884C13.9135 12.1192 14.4757 12.8924 14.4757 13.6051C14.4757 14.7001 14.4392 15.3165 13.8211 15.7823C13.4858 16.0349 12.9254 16.2815 11.9662 16.4612C11.0099 16.6403 9.70258 16.7448 7.91645 16.7448C6.13033 16.7448 4.82297 16.6403 3.86672 16.4612C2.90747 16.2815 2.34708 16.0349 2.01185 15.7823C1.39368 15.3165 1.35721 14.7001 1.35721 13.6051Z" fill="#743C95"/>
</svg>
