<svg width="26" height="26" viewBox="0 0 26 26" fill="none" xmlns="http://www.w3.org/2000/svg">
<path fill-rule="evenodd" clip-rule="evenodd" d="M13 8.46512C10.3548 8.46512 8.21037 10.4955 8.21037 13C8.21037 15.5045 10.3548 17.5349 13 17.5349C15.6453 17.5349 17.7897 15.5045 17.7897 13C17.7897 10.4955 15.6453 8.46512 13 8.46512ZM10.1262 13C10.1262 11.4973 11.4129 10.2791 13 10.2791C14.5872 10.2791 15.8738 11.4973 15.8738 13C15.8738 14.5027 14.5872 15.7209 13 15.7209C11.4129 15.7209 10.1262 14.5027 10.1262 13Z" fill="#545454"/>
<path fill-rule="evenodd" clip-rule="evenodd" d="M12.9677 3.31469e-07C12.4001 -8.53437e-06 11.9262 -1.5959e-05 11.5371 0.0251176C11.1321 0.0512815 10.7495 0.107687 10.3786 0.253146C9.51799 0.590672 8.83421 1.23808 8.47772 2.05294C8.29214 2.47715 8.24187 2.92423 8.22268 3.41019C8.20725 3.80083 7.99903 4.12676 7.69175 4.29473C7.38446 4.4627 6.98224 4.47046 6.61722 4.2878C6.16313 4.06056 5.72906 3.87823 5.24824 3.81829C4.32466 3.70317 3.39061 3.94013 2.65156 4.47706C2.33307 4.70845 2.09019 4.99394 1.86376 5.31295C1.64623 5.6194 1.40929 6.00799 1.12546 6.47347L1.0932 6.52637C0.809352 6.99184 0.572394 7.38042 0.400853 7.712C0.222278 8.05718 0.0825882 8.39907 0.0301878 8.77592C-0.0914034 9.65037 0.158875 10.5347 0.725965 11.2345C1.02116 11.5987 1.4049 11.8634 1.83972 12.1221C2.1894 12.3302 2.38345 12.6639 2.38343 13C2.38342 13.336 2.18937 13.6697 1.83973 13.8777C1.40485 14.1364 1.02106 14.4012 0.72584 14.7654C0.158751 15.4652 -0.0915285 16.3495 0.0300628 17.224C0.0824631 17.6008 0.222153 17.9427 0.400728 18.2879C0.572267 18.6195 0.80922 19.0081 1.09306 19.4735L1.12533 19.5264C1.40916 19.9919 1.64611 20.3805 1.86363 20.687C2.09007 21.006 2.33294 21.2915 2.65144 21.5229C3.39049 22.0598 4.32454 22.2967 5.24812 22.1816C5.72891 22.1217 6.16295 21.9394 6.61702 21.7122C6.98209 21.5295 7.38437 21.5372 7.69169 21.7052C7.99901 21.8732 8.20725 22.1992 8.22268 22.5899C8.24188 23.0758 8.29214 23.5229 8.47772 23.9471C8.83421 24.7619 9.51799 25.4093 10.3786 25.7469C10.7495 25.8923 11.1321 25.9487 11.5371 25.9749C11.9262 26 12.4001 26 12.9677 26H13.0323C13.5999 26 14.0738 26 14.4629 25.9749C14.8679 25.9487 15.2505 25.8923 15.6214 25.7469C16.482 25.4093 17.1658 24.7619 17.5223 23.9471C17.7079 23.5228 17.7581 23.0757 17.7773 22.5898C17.7927 22.1991 18.001 21.8732 18.3082 21.7052C18.6155 21.5372 19.0178 21.5294 19.3829 21.7121C19.8369 21.9393 20.271 22.1216 20.7518 22.1815C21.6753 22.2967 22.6094 22.0597 23.3484 21.5228C23.6669 21.2914 23.9098 21.0059 24.1362 20.6869C24.3538 20.3804 24.5907 19.9919 24.8745 19.5264L24.9068 19.4735C25.1906 19.0081 25.4276 18.6194 25.5991 18.2878C25.7777 17.9427 25.9174 17.6008 25.9698 17.2239C26.0914 16.3495 25.8411 15.4651 25.274 14.7654C24.9788 14.4011 24.5951 14.1364 24.1602 13.8777C23.8106 13.6697 23.6165 13.3359 23.6166 12.9999C23.6166 12.664 23.8106 12.3303 24.1602 12.1223C24.5951 11.8636 24.9789 11.5989 25.2742 11.2346C25.8412 10.5348 26.0915 9.65046 25.9699 8.77601C25.9175 8.39915 25.7778 8.05726 25.5993 7.71209C25.4277 7.38053 25.1908 6.99198 24.907 6.52655L24.8747 6.47361C24.5909 6.00812 24.3539 5.61949 24.1364 5.31304C23.9099 4.99402 23.6671 4.70854 23.3486 4.47714C22.6095 3.94022 21.6755 3.70325 20.7519 3.81837C20.2711 3.87831 19.837 4.06062 19.383 4.28784C19.0179 4.47053 18.6156 4.46276 18.3083 4.29477C18.001 4.12677 17.7927 3.80081 17.7773 3.41012C17.7581 2.92419 17.7079 2.47714 17.5223 2.05294C17.1658 1.23808 16.482 0.590672 15.6214 0.253146C15.2505 0.107687 14.8679 0.0512815 14.4629 0.0251176C14.0738 -1.5959e-05 13.5999 -8.53437e-06 13.0323 3.31469e-07H12.9677ZM11.1118 1.92902C11.2103 1.89037 11.36 1.85473 11.6675 1.83486C11.9836 1.81445 12.3918 1.81395 13 1.81395C13.6082 1.81395 14.0164 1.81445 14.3325 1.83486C14.64 1.85473 14.7897 1.89037 14.8882 1.92902C15.2794 2.08244 15.5902 2.37672 15.7523 2.74711C15.8034 2.86394 15.8457 3.04608 15.8628 3.47792C15.9006 4.43614 16.423 5.35877 17.3504 5.8657C18.2777 6.37263 19.3828 6.33965 20.2782 5.89157C20.6817 5.68964 20.8695 5.63332 21.002 5.61681C21.4218 5.56448 21.8463 5.67219 22.1823 5.91625C22.2669 5.97773 22.3743 6.08266 22.5462 6.32484C22.723 6.5738 22.9275 6.90826 23.2316 7.40698C23.5357 7.9057 23.7394 8.24065 23.8787 8.51002C24.0143 8.77206 24.0565 8.91265 24.0705 9.01277C24.1257 9.41025 24.012 9.81224 23.7542 10.1303C23.6729 10.2306 23.5275 10.3565 23.1409 10.5864C22.2835 11.0965 21.7008 11.9861 21.7007 12.9998C21.7007 14.0137 22.2834 14.9034 23.1409 15.4136C23.5274 15.6435 23.6728 15.7693 23.7541 15.8696C24.0119 16.1877 24.1256 16.5897 24.0703 16.9871C24.0564 17.0873 24.0142 17.2279 23.8786 17.4899C23.7393 17.7593 23.5356 18.0942 23.2315 18.5929C22.9274 19.0917 22.7228 19.4261 22.5461 19.6751C22.3742 19.9173 22.2668 20.0222 22.1821 20.0837C21.8462 20.3277 21.4216 20.4354 21.0018 20.3831C20.8694 20.3666 20.6816 20.3103 20.2781 20.1084C19.3827 19.6603 18.2776 19.6273 17.3502 20.1343C16.423 20.6413 15.9006 21.5638 15.8628 22.522C15.8457 22.9539 15.8034 23.136 15.7523 23.2529C15.5902 23.6233 15.2794 23.9176 14.8882 24.071C14.7897 24.1096 14.64 24.1453 14.3325 24.1651C14.0164 24.1856 13.6082 24.186 13 24.186C12.3918 24.186 11.9836 24.1856 11.6675 24.1651C11.36 24.1453 11.2103 24.1096 11.1118 24.071C10.7206 23.9176 10.4098 23.6233 10.2477 23.2529C10.1966 23.1361 10.1543 22.9539 10.1372 22.5221C10.0993 21.5639 9.57697 20.6412 8.64961 20.1343C7.72225 19.6274 6.61717 19.6604 5.72177 20.1084C5.31825 20.3104 5.13047 20.3667 4.99805 20.3832C4.57824 20.4355 4.15367 20.3278 3.81774 20.0838C3.73312 20.0223 3.62566 19.9173 3.45376 19.6752C3.27704 19.4262 3.0725 19.0917 2.76839 18.593C2.46427 18.0943 2.26063 17.7594 2.12127 17.49C1.9857 17.2279 1.94345 17.0874 1.92953 16.9872C1.87426 16.5898 1.98802 16.1878 2.24579 15.8697C2.3271 15.7694 2.47252 15.6436 2.859 15.4136C3.71651 14.9035 4.29923 14.0139 4.29929 13.0001C4.29935 11.9861 3.7166 11.0964 2.85901 10.5862C2.47262 10.3563 2.32722 10.2305 2.24592 10.1302C1.98815 9.81215 1.87439 9.41017 1.92965 9.01269C1.94358 8.91256 1.98583 8.77198 2.12139 8.50994C2.26075 8.24057 2.4644 7.90562 2.76851 7.4069C3.07262 6.90817 3.27717 6.57372 3.45388 6.32476C3.62578 6.08258 3.73324 5.97765 3.81786 5.91617C4.15379 5.67211 4.57836 5.5644 4.99817 5.61673C5.1306 5.63323 5.3184 5.68957 5.72197 5.89153C6.61731 6.33959 7.72235 6.37256 8.64966 5.86566C9.57699 5.35876 10.0994 4.43617 10.1372 3.47798C10.1543 3.0461 10.1966 2.86395 10.2477 2.74711C10.4098 2.37672 10.7206 2.08244 11.1118 1.92902Z" fill="#545454"/>
</svg>
