<svg width="32" height="32" viewBox="0 0 32 32" fill="none" xmlns="http://www.w3.org/2000/svg">
<path fill-rule="evenodd" clip-rule="evenodd" d="M9.33319 2.33384C9.88547 2.33384 10.3332 2.78155 10.3332 3.33383V4.35077C11.2159 4.3338 12.1884 4.3338 13.2579 4.33381H18.7416C19.8112 4.3338 20.7836 4.3338 21.6663 4.35077V3.33383C21.6663 2.78155 22.114 2.33384 22.6663 2.33384C23.2186 2.33384 23.6663 2.78155 23.6663 3.33383V4.4366C24.0129 4.46302 24.3411 4.49624 24.6516 4.53799C26.2149 4.74816 27.4801 5.19097 28.4779 6.18877C29.4757 7.18658 29.9185 8.45182 30.1287 10.015C30.1959 10.5146 30.2409 11.0598 30.2712 11.6538C30.3111 11.7618 30.3329 11.8785 30.3329 12.0004C30.3329 12.0928 30.3203 12.1823 30.2969 12.2672C30.3329 13.3365 30.3329 14.5507 30.3329 15.9251V18.7421C30.3329 21.1924 30.3329 23.1333 30.1287 24.6522C29.9185 26.2154 29.4757 27.4806 28.4779 28.4784C27.4801 29.4762 26.2149 29.9191 24.6516 30.1292C23.1327 30.3334 21.1919 30.3334 18.7416 30.3334H13.2579C10.8076 30.3334 8.86679 30.3334 7.34786 30.1292C5.78466 29.9191 4.51941 29.4762 3.52161 28.4784C2.52381 27.4806 2.08099 26.2154 1.87082 24.6522C1.66661 23.1333 1.66663 21.1925 1.66665 18.7421V15.9251C1.66663 14.5507 1.66662 13.3365 1.70266 12.2672C1.67919 12.1823 1.66665 12.0928 1.66665 12.0004C1.66665 11.8785 1.68844 11.7618 1.72834 11.6538C1.75858 11.0598 1.80366 10.5146 1.87082 10.015C2.08099 8.45182 2.52381 7.18658 3.52161 6.18877C4.51941 5.19097 5.78466 4.74816 7.34786 4.53799C7.65842 4.49624 7.98662 4.46302 8.33321 4.4366V3.33383C8.33321 2.78155 8.78092 2.33384 9.33319 2.33384ZM3.68406 13.0003C3.66704 13.8706 3.66662 14.8616 3.66662 16.0003V18.6669C3.66662 21.2093 3.66874 23.0155 3.85296 24.3857C4.03331 25.7271 4.37153 26.5 4.9358 27.0643C5.50007 27.6285 6.27292 27.9667 7.61435 28.1471C8.98455 28.3313 10.7907 28.3334 13.3331 28.3334H18.6664C21.2088 28.3334 23.015 28.3313 24.3852 28.1471C25.7266 27.9667 26.4994 27.6285 27.0637 27.0643C27.628 26.5 27.9662 25.7271 28.1466 24.3857C28.3308 23.0155 28.3329 21.2093 28.3329 18.6669V16.0003C28.3329 14.8616 28.3325 13.8706 28.3154 13.0003H3.68406ZM28.224 11.0004H3.77552C3.79688 10.7479 3.82241 10.5087 3.85296 10.2815C4.03331 8.94009 4.37153 8.16724 4.9358 7.60297C5.50007 7.0387 6.27292 6.70048 7.61435 6.52012C8.98455 6.33591 10.7907 6.33378 13.3331 6.33378H18.6664C21.2088 6.33378 23.015 6.33591 24.3852 6.52012C25.7266 6.70048 26.4994 7.0387 27.0637 7.60297C27.628 8.16724 27.9662 8.94009 28.1466 10.2815C28.1771 10.5087 28.2026 10.7479 28.224 11.0004ZM14.3825 16.4097C14.7561 16.5645 14.9998 16.9292 14.9998 17.3336V22.6669C14.9998 23.2191 14.5521 23.6668 13.9998 23.6668C13.4475 23.6668 12.9998 23.2191 12.9998 22.6669V19.7478L12.7069 20.0407C12.3164 20.4312 11.6832 20.4312 11.2927 20.0407C10.9022 19.6502 10.9022 19.017 11.2927 18.6265L13.2927 16.6265C13.5787 16.3405 14.0088 16.255 14.3825 16.4097ZM18.6664 18.3336C18.4823 18.3336 18.3331 18.4828 18.3331 18.6669V21.3335C18.3331 21.5176 18.4823 21.6669 18.6664 21.6669C18.8505 21.6669 18.9997 21.5176 18.9997 21.3335V18.6669C18.9997 18.4828 18.8505 18.3336 18.6664 18.3336ZM16.3331 18.6669C16.3331 17.3783 17.3777 16.3336 18.6664 16.3336C19.955 16.3336 20.9997 17.3783 20.9997 18.6669V21.3335C20.9997 22.6222 19.955 23.6668 18.6664 23.6668C17.3777 23.6668 16.3331 22.6222 16.3331 21.3335V18.6669Z" fill="white"/>
</svg>
