<svg width="5" height="5" viewBox="0 0 5 5" fill="none" xmlns="http://www.w3.org/2000/svg">
<path d="M4.8383 4.05339L3.27954 2.49685L4.8383 0.940302C5.05303 0.725576 5.05303 0.377047 4.83886 0.161738C4.62358 -0.0540977 4.27505 -0.0535426 4.05977 0.161183L2.49992 1.71884L0.940067 0.161183C0.724786 -0.0535426 0.376256 -0.0540977 0.160975 0.161738C-0.0537506 0.377019 -0.0537509 0.725548 0.16153 0.940302L1.7203 2.49685L0.16153 4.05339C-0.0537509 4.26812 -0.0537506 4.61665 0.160975 4.83195C0.268352 4.93986 0.409846 4.99327 0.550812 4.99327C0.691779 4.99327 0.832718 4.9393 0.940094 4.83248L2.49994 3.27483L4.05979 4.83248C4.16717 4.93986 4.30811 4.99327 4.44907 4.99327C4.59004 4.99327 4.73154 4.9393 4.83891 4.83195C5.05358 4.61665 5.05358 4.26812 4.8383 4.05339Z" fill="#545454"/>
</svg>
