<svg width="27" height="27" viewBox="0 0 27 27" fill="none" xmlns="http://www.w3.org/2000/svg">
<path d="M4.50029 8.9993V6.7493C4.50029 6.15257 4.73734 5.58027 5.1593 5.15831C5.58125 4.73636 6.15355 4.49931 6.75029 4.49931H9.00028M18.0003 4.49931H20.2503C20.847 4.49931 21.4193 4.73636 21.8413 5.15831C22.2632 5.58027 22.5003 6.15257 22.5003 6.7493V8.9993M22.5003 17.9993V20.2493C22.5003 20.846 22.2632 21.4183 21.8413 21.8403C21.4193 22.2622 20.847 22.4993 20.2503 22.4993H18.0003M9.00028 22.4993H6.75029C6.15355 22.4993 5.58125 22.2622 5.1593 21.8403C4.73734 21.4183 4.50029 20.846 4.50029 20.2493V17.9993" stroke="#545454" stroke-width="2.24058" stroke-linecap="round" stroke-linejoin="round"/>
</svg>
