<svg width="19" height="19" viewBox="0 0 19 19" fill="none" xmlns="http://www.w3.org/2000/svg">
<path d="M13.4255 7.7194C13.0975 7.7194 12.8317 7.45357 12.8317 7.12565L12.8317 1.58398C12.8317 1.25607 13.0975 0.990234 13.4255 0.990234C13.7534 0.990234 14.0192 1.25607 14.0192 1.58398L14.0192 7.12565C14.0192 7.45357 13.7534 7.7194 13.4255 7.7194Z" fill="white"/>
<path fill-rule="evenodd" clip-rule="evenodd" d="M5.54163 4.55273C7.18122 4.55273 8.51038 5.88189 8.51038 7.52149C8.51038 9.16108 7.18122 10.4902 5.54163 10.4902C3.90203 10.4902 2.57288 9.16108 2.57288 7.52149C2.57288 5.88189 3.90203 4.55273 5.54163 4.55273ZM7.32288 7.52149C7.32288 6.53773 6.52538 5.74023 5.54163 5.74023C4.55787 5.74023 3.76038 6.53773 3.76038 7.52149C3.76038 8.50524 4.55787 9.30274 5.54163 9.30274C6.52538 9.30274 7.32288 8.50524 7.32288 7.52149Z" fill="white"/>
<path fill-rule="evenodd" clip-rule="evenodd" d="M13.4583 14.4486C15.0979 14.4486 16.427 13.1194 16.427 11.4798C16.427 9.84022 15.0979 8.51107 13.4583 8.51107C11.8187 8.51107 10.4895 9.84022 10.4895 11.4798C10.4895 13.1194 11.8187 14.4486 13.4583 14.4486ZM15.2395 11.4798C15.2395 12.4636 14.442 13.2611 13.4583 13.2611C12.4745 13.2611 11.677 12.4636 11.677 11.4798C11.677 10.4961 12.4745 9.69857 13.4583 9.69857C14.442 9.69857 15.2395 10.4961 15.2395 11.4798Z" fill="white"/>
<path d="M4.91504 11.8757C4.91504 11.5477 5.18087 11.2819 5.50879 11.2819C5.83671 11.2819 6.10254 11.5477 6.10254 11.8757V17.4173C6.10254 17.7452 5.83671 18.0111 5.50879 18.0111C5.18087 18.0111 4.91504 17.7452 4.91504 17.4173V11.8757Z" fill="white"/>
<path d="M13.4255 18.0111C13.0975 18.0111 12.8317 17.7452 12.8317 17.4173V15.834C12.8317 15.5061 13.0975 15.2402 13.4255 15.2402C13.7534 15.2402 14.0192 15.5061 14.0192 15.834V17.4173C14.0192 17.7452 13.7534 18.0111 13.4255 18.0111Z" fill="white"/>
<path d="M4.91504 1.58398C4.91504 1.25607 5.18087 0.990234 5.50879 0.990234C5.83671 0.990234 6.10254 1.25607 6.10254 1.58398V3.16732C6.10254 3.49524 5.83671 3.76107 5.50879 3.76107C5.18087 3.76107 4.91504 3.49524 4.91504 3.16732V1.58398Z" fill="white"/>
</svg>
