<svg width="20" height="20" viewBox="0 0 20 20" fill="none" xmlns="http://www.w3.org/2000/svg">
<path fill-rule="evenodd" clip-rule="evenodd" d="M6.51163 15.5814C6.51163 15.1961 6.82399 14.8837 7.20931 14.8837H12.7907C13.176 14.8837 13.4884 15.1961 13.4884 15.5814C13.4884 15.9667 13.176 16.2791 12.7907 16.2791H7.20931C6.82399 16.2791 6.51163 15.9667 6.51163 15.5814Z" fill="#545454"/>
<path fill-rule="evenodd" clip-rule="evenodd" d="M6.92963 6.65768e-06H13.0701C13.2747 -4.87885e-05 13.4315 -9.12609e-05 13.5685 0.0146184C14.8282 0.149805 15.7924 1.18425 15.8509 2.43733C16.9586 2.7681 17.7478 3.79302 17.7621 4.96853C18.3212 5.13628 18.8034 5.40088 19.1982 5.82727C19.8047 6.48239 19.9926 7.28975 19.9998 8.23286C20.0067 9.13951 19.8451 10.2853 19.6445 11.7082L19.2361 14.6045C19.0793 15.7172 18.9518 16.621 18.7536 17.3293C18.5462 18.0703 18.2404 18.68 17.6744 19.1487C17.1128 19.6137 16.4466 19.8142 15.6591 19.9087C14.8977 20 13.9398 20 12.7471 20H7.2529C6.06026 20 5.10233 20 4.34091 19.9087C3.55342 19.8142 2.88718 19.6137 2.32561 19.1487C1.75956 18.68 1.45382 18.0703 1.24641 17.3293C1.04815 16.621 0.920736 15.7172 0.763888 14.6045L0.35553 11.7082C0.154895 10.2853 -0.00666942 9.13951 0.000211955 8.23286C0.00737006 7.28975 0.195321 6.48239 0.80182 5.82727C1.19648 5.40098 1.67856 5.13641 2.23747 4.96865C2.25171 3.79302 3.04109 2.76799 4.14889 2.43727C4.2074 1.18422 5.17157 0.149803 6.43125 0.0146184C6.56832 -9.13163e-05 6.72512 -4.87885e-05 6.92963 6.65768e-06ZM3.6642 4.72357C4.52541 4.65115 5.58115 4.65116 6.85204 4.65117H13.148C14.4186 4.65116 15.4743 4.65115 16.3354 4.72354C16.2078 4.1583 15.7029 3.72094 15.0807 3.72094H4.91895C4.29671 3.72094 3.7918 4.15832 3.6642 4.72357ZM13.4196 1.402C13.9315 1.45693 14.3359 1.83844 14.435 2.32559H5.56475C5.66383 1.83844 6.06832 1.45693 6.58014 1.402C6.63249 1.39638 6.7071 1.39536 6.96836 1.39536H13.0314C13.2927 1.39536 13.3673 1.39638 13.4196 1.402ZM1.82574 6.77521C2.10751 6.47086 2.53122 6.26899 3.35453 6.15948C4.1928 6.04798 5.31495 6.04652 6.90455 6.04652H13.0954C14.685 6.04652 15.8072 6.04798 16.6455 6.15948C17.4688 6.26899 17.8925 6.47086 18.1743 6.77521C18.4495 7.07249 18.5987 7.47704 18.6045 8.24345C18.6105 9.03421 18.4653 10.077 18.2547 11.5705L17.8613 14.3612C17.6959 15.5341 17.5801 16.3451 17.4099 16.9532C17.246 17.5388 17.0531 17.8516 16.7845 18.0739C16.5115 18.3 16.145 18.445 15.4928 18.5232C14.8242 18.6035 13.9503 18.6047 12.702 18.6047H7.29801C6.04974 18.6047 5.17575 18.6035 4.50716 18.5232C3.85504 18.445 3.4885 18.3 3.21548 18.0739C2.94694 17.8516 2.75403 17.5388 2.59011 16.9532C2.4199 16.3451 2.30409 15.5341 2.13873 14.3612L1.74527 11.5705C1.5347 10.077 1.38952 9.03421 1.39552 8.24345C1.40134 7.47704 1.55052 7.07249 1.82574 6.77521Z" fill="#545454"/>
</svg>
