<svg width="22" height="22" viewBox="0 0 22 22" fill="none" xmlns="http://www.w3.org/2000/svg">
<path d="M18.4419 7.06155L18.4972 7.49892H18.938H20C20.3978 7.49892 20.7794 7.65696 21.0607 7.93826C21.342 8.21957 21.5 8.6011 21.5 8.99892V12.9989C21.5 13.3967 21.342 13.7783 21.0607 14.0596C20.7794 14.3409 20.3978 14.4989 20 14.4989H18.938H18.4971L18.4419 14.9364C18.2134 16.7489 17.3312 18.4156 15.961 19.6239C14.7163 20.7215 13.1466 21.3723 11.5 21.4822V20.4797C13.041 20.3608 14.4956 19.6957 15.5962 18.5951C16.8152 17.3761 17.5 15.7228 17.5 13.9989V7.99892C17.5 6.27502 16.8152 4.62172 15.5962 3.40273C14.3772 2.18374 12.7239 1.49892 11 1.49892C9.27609 1.49892 7.62279 2.18374 6.40381 3.40273C5.18482 4.62172 4.5 6.27502 4.5 7.99892V14.4989H2C1.60218 14.4989 1.22064 14.3409 0.93934 14.0596C0.658035 13.7783 0.5 13.3967 0.5 12.9989V8.99892C0.5 8.6011 0.658035 8.21957 0.93934 7.93826C1.22064 7.65696 1.60218 7.49892 2 7.49892H3.062H3.50285L3.55806 7.06155C3.78684 5.24924 4.66908 3.58271 6.03925 2.37464C7.40941 1.16657 9.17332 0.5 11 0.5C12.8267 0.5 14.5906 1.16657 15.9608 2.37464C17.3309 3.58271 18.2132 5.24924 18.4419 7.06155ZM2 8.49892H1.5V8.99892V12.9989V13.4989H2H3H3.5V12.9989V8.99892V8.49892H3H2ZM19 8.49892H18.5V8.99892V12.9989V13.4989H19H20H20.5V12.9989V8.99892V8.49892H20H19ZM11.0008 15.4989L10.9992 15.4989C9.7608 15.5009 8.54408 15.1946 7.45757 14.6112L7.989 13.7609C8.91584 14.2461 9.9489 14.5005 11 14.4989C12.0511 14.5005 13.0842 14.2461 14.011 13.7609L14.5424 14.6112C13.4559 15.1946 12.2392 15.5008 11.0008 15.4989Z" fill="#8D98AA" stroke="#743C95"/>
</svg>
