<svg width="11" height="11" viewBox="0 0 11 11" fill="none" xmlns="http://www.w3.org/2000/svg">
<path fill-rule="evenodd" clip-rule="evenodd" d="M7.88509 4.94755L8.70826 4.12438C8.95805 3.87459 9.08318 3.74947 9.15009 3.61472C9.21278 3.4882 9.2454 3.34891 9.2454 3.20772C9.2454 3.06652 9.21278 2.92723 9.15009 2.80072C9.08318 2.66597 8.95805 2.54084 8.70826 2.29105C8.45847 2.04126 8.33334 1.91613 8.19859 1.84921C8.07208 1.78652 7.93279 1.75391 7.79159 1.75391C7.6504 1.75391 7.51111 1.78652 7.38459 1.84921C7.24984 1.91613 7.12472 2.04126 6.87493 2.29105L6.04122 3.12476C6.48472 3.88404 7.12076 4.51281 7.88509 4.94755ZM5.3748 3.79117L2.22605 6.93992C2.0308 7.13517 1.93363 7.23234 1.86947 7.35242C1.8053 7.47159 1.77826 7.6068 1.72463 7.87721L1.4423 9.28751C1.41205 9.43967 1.39647 9.51576 1.44001 9.5593C1.48355 9.60284 1.55918 9.58726 1.7118 9.55701L3.12209 9.27467C3.39251 9.22105 3.52772 9.19401 3.64734 9.12984C3.76651 9.06567 3.86413 8.96851 4.05893 8.77372L7.21684 5.6158C6.47528 5.15154 5.84599 4.52851 5.37434 3.79163L5.3748 3.79117Z" fill="white"/>
</svg>
