<svg width="26" height="26" viewBox="0 0 26 26" fill="none" xmlns="http://www.w3.org/2000/svg">
<path d="M12.093 20.2558C12.093 20.7567 12.4991 21.1628 13 21.1628C13.5009 21.1628 13.907 20.7567 13.907 20.2558V16.6279C13.907 16.127 13.5009 15.7209 13 15.7209C12.4991 15.7209 12.093 16.127 12.093 16.6279V20.2558Z" fill="#545454"/>
<path fill-rule="evenodd" clip-rule="evenodd" d="M13 0C12.1437 0 11.3657 0.24527 10.5216 0.655732C9.70568 1.05251 8.76311 1.6375 7.58578 2.3682L5.08667 3.91923C3.97266 4.6106 3.08063 5.16421 2.39309 5.69074C1.68111 6.236 1.13426 6.79131 0.739259 7.51295C0.34508 8.23308 0.16757 8.99932 0.0824623 9.90504C-1.72542e-05 10.7828 -9.39719e-06 11.8561 3.2314e-07 13.2022V15.1524C-1.66052e-05 17.4548 -2.99312e-05 19.2721 0.184665 20.6931C0.374125 22.1507 0.772215 23.3275 1.67169 24.2579C2.57531 25.1926 3.7252 25.6102 5.14873 25.8082C6.52841 26 8.29045 26 10.5111 26H15.4889C17.7095 26 19.4716 26 20.8513 25.8082C22.2748 25.6102 23.4247 25.1926 24.3283 24.2579C25.2278 23.3275 25.6259 22.1507 25.8153 20.6931C26 19.2721 26 17.4548 26 15.1524V13.2022C26 11.8562 26 10.7828 25.9175 9.90504C25.8324 8.99931 25.6549 8.23308 25.2607 7.51295C24.8657 6.79131 24.3189 6.236 23.6069 5.69074C22.9194 5.16421 22.0274 4.61061 20.9134 3.91925L18.4142 2.36819C17.2369 1.6375 16.2943 1.05251 15.4784 0.655732C14.6343 0.24527 13.8563 0 13 0ZM8.50082 3.93521C9.72919 3.17286 10.5929 2.63813 11.3149 2.28703C12.0183 1.94495 12.5165 1.81395 13 1.81395C13.4835 1.81395 13.9817 1.94495 14.6851 2.28703C15.4071 2.63813 16.2708 3.17285 17.4992 3.93521L19.9178 5.43626C21.0797 6.1574 21.8955 6.66489 22.504 7.13089C23.0961 7.58431 23.4367 7.95849 23.6696 8.38391C23.9033 8.81085 24.0397 9.31 24.1115 10.0747C24.1851 10.8578 24.186 11.8461 24.186 13.2466V15.086C24.186 17.4695 24.1842 19.1688 24.0165 20.4593C23.8518 21.7267 23.5415 22.462 23.0242 22.9971C22.511 23.5279 21.8124 23.8431 20.6014 24.0115C19.3611 24.184 17.7254 24.186 15.4186 24.186H10.5814C8.27462 24.186 6.63887 24.184 5.39859 24.0115C4.18764 23.8431 3.489 23.5279 2.97584 22.9971C2.45853 22.462 2.14822 21.7267 1.98349 20.4593C1.81576 19.1688 1.81395 17.4695 1.81395 15.086V13.2466C1.81395 11.8461 1.81488 10.8578 1.88846 10.0747C1.96032 9.31 2.09675 8.81085 2.33044 8.38391C2.5633 7.95849 2.90393 7.58431 3.49599 7.13089C4.10449 6.66489 4.92028 6.1574 6.08222 5.43627L8.50082 3.93521Z" fill="#545454"/>
</svg>
