<svg width="22" height="21" viewBox="0 0 22 21" fill="none" xmlns="http://www.w3.org/2000/svg">
<path d="M10.9949 13.4899C12.6895 13.4899 14.0632 12.1162 14.0632 10.4216C14.0632 8.72697 12.6895 7.35323 10.9949 7.35323C9.30028 7.35323 7.92654 8.72697 7.92654 10.4216C7.92654 12.1162 9.30028 13.4899 10.9949 13.4899Z" stroke="#8D98AA" stroke-width="1.5" stroke-miterlimit="10" stroke-linecap="round" stroke-linejoin="round"/>
<path d="M0.767085 11.321V9.52095C0.767085 8.45726 1.63645 7.57767 2.71037 7.57767C4.5616 7.57767 5.31845 6.26852 4.38772 4.66275C3.85588 3.74225 4.17294 2.5456 5.10367 2.01375L6.87308 1.0012C7.68107 0.520494 8.72431 0.806872 9.20502 1.61487L9.31752 1.8092C10.238 3.41496 11.7517 3.41496 12.6825 1.8092L12.795 1.61487C13.2757 0.806872 14.3189 0.520494 15.1269 1.0012L16.8963 2.01375C17.827 2.5456 18.1441 3.74225 17.6123 4.66275C16.6815 6.26852 17.4384 7.57767 19.2896 7.57767C20.3533 7.57767 21.2329 8.44704 21.2329 9.52095V11.321C21.2329 12.3847 20.3635 13.2643 19.2896 13.2643C17.4384 13.2643 16.6815 14.5735 17.6123 16.1792C18.1441 17.11 17.827 18.2964 16.8963 18.8282L15.1269 19.8408C14.3189 20.3215 13.2757 20.0351 12.795 19.2271L12.6825 19.0328C11.762 17.427 10.2483 17.427 9.31752 19.0328L9.20502 19.2271C8.72431 20.0351 7.68107 20.3215 6.87308 19.8408L5.10367 18.8282C4.17294 18.2964 3.85588 17.0998 4.38772 16.1792C5.31845 14.5735 4.5616 13.2643 2.71037 13.2643C1.63645 13.2643 0.767085 12.3847 0.767085 11.321Z" stroke="#8D98AA" stroke-width="1.5" stroke-miterlimit="10" stroke-linecap="round" stroke-linejoin="round"/>
</svg>
