<svg width="22" height="22" viewBox="0 0 22 22" fill="none" xmlns="http://www.w3.org/2000/svg">
<path fill-rule="evenodd" clip-rule="evenodd" d="M11 2.52139C6.31709 2.52139 2.52083 6.31764 2.52083 11.0006C2.52083 15.6835 6.31709 19.4797 11 19.4797C15.6829 19.4797 19.4792 15.6835 19.4792 11.0006C19.4792 6.31764 15.6829 2.52139 11 2.52139ZM1.14583 11.0006C1.14583 5.55825 5.5577 1.14639 11 1.14639C16.4423 1.14639 20.8542 5.55825 20.8542 11.0006C20.8542 16.4429 16.4423 20.8547 11 20.8547C5.5577 20.8547 1.14583 16.4429 1.14583 11.0006ZM11 6.64639C11.3797 6.64639 11.6875 6.95419 11.6875 7.33389V10.7158L13.7778 12.8061C14.0463 13.0746 14.0463 13.5099 13.7778 13.7784C13.5093 14.0468 13.074 14.0468 12.8055 13.7784L10.5139 11.4867C10.3849 11.3578 10.3125 11.1829 10.3125 11.0006V7.33389C10.3125 6.95419 10.6203 6.64639 11 6.64639Z" fill="#545454"/>
</svg>
