<svg width="51" height="49" viewBox="0 0 51 49" fill="none" xmlns="http://www.w3.org/2000/svg">
<path d="M40.7484 1.69688e-08H7.90641L7.45878 0.012164C5.44251 0.126499 3.54642 1.00805 2.15948 2.47597C0.772527 3.94389 -0.000132212 5.8869 1.69688e-08 7.90641V31.0174L0.012164 31.4651C0.126499 33.4813 1.00805 35.3774 2.47597 36.7644C3.94389 38.1513 5.8869 38.924 7.90641 38.9239H23.6389C24.0866 37.8972 24.7215 36.9606 25.5195 36.1627L26.4074 35.2747H7.90641L7.55609 35.2602C6.49128 35.1722 5.49845 34.6872 4.77469 33.9012C4.05093 33.1152 3.64915 32.0859 3.64911 31.0174V13.0736L23.476 23.51L23.7119 23.6122C23.9498 23.6975 24.2028 23.7325 24.4549 23.7149C24.707 23.6973 24.9527 23.6275 25.1764 23.51L45.0057 13.0711V19.479C46.2534 19.3966 47.5031 19.6074 48.6548 20.0944V7.90641L48.6427 7.45878C48.5283 5.44251 47.6468 3.54642 46.1789 2.15948C44.7109 0.772527 42.7679 -0.000132212 40.7484 1.69688e-08ZM7.90641 3.64911H40.7484L41.0963 3.66371C42.1615 3.75105 43.155 4.23587 43.8792 5.02189C44.6035 5.8079 45.0056 6.83759 45.0057 7.90641V8.94762L24.3274 19.8317L3.64911 8.95249V7.90641L3.66371 7.55609C3.75163 6.49128 4.23671 5.49845 5.02266 4.77469C5.80861 4.05093 6.83797 3.64915 7.90641 3.64911ZM41.5999 23.5246L27.2394 37.8826C26.4027 38.7197 25.8091 39.7682 25.5219 40.9163L24.4077 45.3706C24.2969 45.8138 24.3028 46.2781 24.4248 46.7184C24.5468 47.1586 24.7808 47.5597 25.104 47.8826C25.4271 48.2055 25.8284 48.4392 26.2687 48.5609C26.709 48.6826 27.1734 48.6881 27.6165 48.577L32.0684 47.4652C33.2177 47.1778 34.2671 46.5833 35.1045 45.7453L49.4625 31.3872C50.465 30.3364 51.0167 28.9352 50.9997 27.483C50.9826 26.0308 50.3981 24.6428 49.3712 23.6159C48.3443 22.589 46.9563 22.0045 45.5041 21.9874C44.0519 21.9704 42.6507 22.5221 41.5999 23.5246Z" fill="black"/>
</svg>
