<svg width="29" height="29" viewBox="0 0 29 29" fill="none" xmlns="http://www.w3.org/2000/svg">
<path d="M9.43934 1.00027e-05H19.5605C19.8976 -7.3301e-05 20.156 -0.000137112 20.382 0.021963C21.9883 0.179097 23.3031 1.14489 23.8606 2.44583H5.1392C5.69675 1.14489 7.01154 0.179097 8.61788 0.021963C8.8438 -0.000137196 9.10225 -7.3301e-05 9.43934 1.00027e-05Z" fill="#743C95"/>
<path d="M6.25025 3.94852C4.23385 3.94852 2.58046 5.16616 2.0287 6.78152C2.01719 6.8152 2.00617 6.84904 1.99562 6.88305C2.57294 6.70823 3.17377 6.59401 3.782 6.51604C5.34854 6.3152 7.32828 6.31531 9.62803 6.31543L9.79977 6.31544L19.6216 6.31543C21.9213 6.31531 23.9011 6.3152 25.4676 6.51604C26.0758 6.59401 26.6767 6.70823 27.254 6.88305C27.2434 6.84904 27.2324 6.8152 27.2209 6.78152C26.6691 5.16616 25.0157 3.94852 22.9993 3.94852H6.25025Z" fill="#743C95"/>
<path fill-rule="evenodd" clip-rule="evenodd" d="M9.67497 8.03596H19.325C24.2185 8.03596 26.6653 8.03596 28.0396 9.46687C29.414 10.8978 29.0906 13.1085 28.4439 17.5299L27.8306 21.7227C27.3234 25.1899 27.0698 26.9236 25.7689 27.9618C24.468 29 22.5492 29 18.7117 29H10.2883C6.45077 29 4.53202 29 3.23109 27.9618C1.93017 26.9236 1.67658 25.1899 1.1694 21.7227L0.556091 17.5299C-0.0906501 13.1085 -0.414021 10.8978 0.960361 9.46687C2.33474 8.03596 4.78148 8.03596 9.67497 8.03596ZM8.7 23.2002C8.7 22.5996 9.24099 22.1127 9.90833 22.1127H19.0917C19.759 22.1127 20.3 22.5996 20.3 23.2002C20.3 23.8008 19.759 24.2877 19.0917 24.2877H9.90833C9.24099 24.2877 8.7 23.8008 8.7 23.2002Z" fill="#743C95"/>
</svg>
