<svg width="47" height="47" viewBox="0 0 47 47" fill="none" xmlns="http://www.w3.org/2000/svg">
<g clip-path="url(#clip0_68_7999)">
<path d="M23.4988 0.938841C11.0391 0.938841 0.938841 11.0391 0.938841 23.4988C0.938841 35.9585 11.0391 46.0588 23.4988 46.0588C35.9585 46.0588 46.0588 35.9585 46.0588 23.4988C46.0588 11.0391 35.9585 0.938841 23.4988 0.938841ZM17.9763 32.8495H13.4079V18.1479H17.9763V32.8495ZM15.6639 16.3431C14.221 16.3431 13.2881 15.3208 13.2881 14.0565C13.2881 12.7664 14.2492 11.7747 15.7227 11.7747C17.1961 11.7747 18.0985 12.7664 18.1267 14.0565C18.1267 15.3208 17.1961 16.3431 15.6639 16.3431ZM34.6613 32.8495H30.0929V24.702C30.0929 22.8056 29.4302 21.5178 27.7782 21.5178C26.5162 21.5178 25.7666 22.3896 25.4352 23.2286C25.313 23.527 25.2825 23.95 25.2825 24.3707V32.8471H20.7117V22.8361C20.7117 21.0008 20.653 19.4662 20.5919 18.1455H24.561L24.7702 20.1877H24.8618C25.4634 19.2289 26.9369 17.8142 29.402 17.8142C32.4077 17.8142 34.6613 19.8281 34.6613 24.1568V32.8495Z" fill="black"/>
</g>
<defs>
<clipPath id="clip0_68_7999">
<rect width="46.3462" height="46.3462" fill="white" transform="scale(1.01411)"/>
</clipPath>
</defs>
</svg>
