<svg width="41" height="26" viewBox="0 0 41 26" fill="none" xmlns="http://www.w3.org/2000/svg">
<path d="M14.9562 22.886H26.0431V2.73961H14.9562V22.886Z" fill="#FF5F00"/>
<path d="M15.6607 12.8126C15.6607 8.72538 17.5532 5.08518 20.5002 2.7394C18.3448 1.02358 15.6255 0 12.6697 0C5.67228 0 0 5.73648 0 12.8126C0 19.8887 5.67228 25.6252 12.6697 25.6252C15.6255 25.6252 18.3448 24.6016 20.5002 22.8858C17.5532 20.5397 15.6607 16.8998 15.6607 12.8126Z" fill="#EB001B"/>
<path fill-rule="evenodd" clip-rule="evenodd" d="M28.3303 25.6252C35.3274 25.6252 41 19.8887 41 12.8126C41 5.73648 35.3274 0 28.3303 0C25.3745 0 22.6548 1.02358 20.4998 2.7394C23.4468 5.08553 25.3393 8.72573 25.3393 12.8126C25.3393 16.8998 23.4468 20.54 20.4998 22.8858C22.6548 24.6016 25.3745 25.6252 28.3303 25.6252ZM40.6041 20.7533V20.2561H40.4756L40.3281 20.5981L40.1803 20.2561H40.0519V20.7533H40.1423V20.3782L40.281 20.7017H40.375L40.5136 20.3775V20.7533H40.6041ZM39.7911 20.753V20.3405H39.9558V20.2565H39.537V20.3405H39.7014V20.753H39.7911Z" fill="#F79E1B"/>
</svg>
