<svg width="41" height="44" viewBox="0 0 41 44" fill="none" xmlns="http://www.w3.org/2000/svg">
<path d="M9.85582 10.1931C8.88637 9.72998 7.82129 10.6159 8.09813 11.6538L10.1276 19.2372C10.1785 19.4278 10.2842 19.5993 10.4317 19.7303C10.5792 19.8613 10.7619 19.9461 10.9571 19.9741L20.9073 21.3956C21.1952 21.4358 21.1952 21.8526 20.9073 21.8939L10.9582 23.3143C10.7629 23.3424 10.5802 23.4272 10.4327 23.5582C10.2852 23.6892 10.1795 23.8606 10.1286 24.0512L8.09813 31.6387C7.82129 32.6756 8.88637 33.5615 9.85582 33.0994L31.4978 22.7818C32.4531 22.3268 32.4531 20.9657 31.4978 20.5097L9.85582 10.1931Z" fill="#FCFCFC"/>
</svg>
