<svg width="31" height="31" viewBox="0 0 31 31" fill="none" xmlns="http://www.w3.org/2000/svg">
<g opacity="0.4">
<path d="M4.23004 19.7559C3.13221 18.3297 2.58329 17.6165 2.58329 15.499C2.58329 13.3815 3.13221 12.6683 4.23004 11.2421C6.4221 8.39422 10.0984 5.1656 15.5 5.1656C20.9017 5.1656 24.578 8.39422 26.77 11.2421C27.8679 12.6683 28.4168 13.3815 28.4168 15.499C28.4168 17.6165 27.8679 18.3297 26.77 19.7559C24.578 22.6038 20.9017 25.8324 15.5 25.8324C10.0984 25.8324 6.4221 22.6038 4.23004 19.7559Z" stroke="#13131A" stroke-width="2.5689"/>
<path d="M19.3751 15.4986C19.3751 17.6387 17.6402 19.3736 15.5001 19.3736C13.36 19.3736 11.6251 17.6387 11.6251 15.4986C11.6251 13.3585 13.36 11.6236 15.5001 11.6236C17.6402 11.6236 19.3751 13.3585 19.3751 15.4986Z" stroke="#13131A" stroke-width="2.5689"/>
</g>
</svg>
