<svg width="47" height="47" viewBox="0 0 47 47" fill="none" xmlns="http://www.w3.org/2000/svg">
<path fill-rule="evenodd" clip-rule="evenodd" d="M23.4989 3.9158C12.6791 3.9158 3.91556 12.6793 3.91556 23.4991C3.91333 27.6102 5.20573 31.6176 7.60939 34.9528C10.0131 38.2879 13.4059 40.7815 17.3066 42.0798C18.2858 42.2501 18.652 41.6626 18.652 41.1476C18.652 40.6835 18.6265 39.1423 18.6265 37.5012C13.7072 38.4079 12.4343 36.3027 12.0426 35.2002C11.8213 34.6362 10.8676 32.8991 10.0353 32.433C9.34993 32.0668 8.37076 31.1601 10.0099 31.1366C11.553 31.1112 12.6536 32.5564 13.0218 33.1439C14.7843 36.1049 17.6004 35.2726 18.7245 34.7595C18.8968 33.4866 19.4099 32.6308 19.9739 32.1412C15.6166 31.6517 11.0635 29.9616 11.0635 22.471C11.0635 20.3403 11.8213 18.5798 13.0708 17.207C12.8749 16.7174 12.1895 14.7101 13.2666 12.0174C13.2666 12.0174 14.9057 11.5043 18.652 14.0267C20.2462 13.5842 21.8934 13.3615 23.5478 13.3648C25.2124 13.3648 26.877 13.5841 28.4437 14.0247C32.188 11.4789 33.8291 12.0194 33.8291 12.0194C34.9062 14.7121 34.2207 16.7194 34.0249 17.209C35.2724 18.5798 36.0322 20.3168 36.0322 22.471C36.0322 29.9871 31.4556 31.6517 27.0983 32.1412C27.8072 32.7522 28.4202 33.9272 28.4202 35.7642C28.4202 38.3824 28.3947 40.4876 28.3947 41.1496C28.3947 41.6626 28.7629 42.2736 29.742 42.0778C33.6294 40.7653 37.0073 38.2669 39.4003 34.9341C41.7934 31.6013 43.0811 27.602 43.0822 23.4991C43.0822 12.6793 34.3187 3.9158 23.4989 3.9158Z" fill="black"/>
</svg>
