<svg width="58" height="58" viewBox="0 0 58 58" fill="none" xmlns="http://www.w3.org/2000/svg">
<g clip-path="url(#clip0_68_4204)">
<path d="M57.9998 28.9999C57.9998 12.9838 45.016 0 28.9999 0C12.9838 0 0 12.9836 0 28.9999C0 43.4745 10.6049 55.472 24.4687 57.6475V37.3827H17.1054V28.9999H24.4687V22.6109C24.4687 15.3428 28.7982 11.3281 35.4222 11.3281C38.5952 11.3281 41.9139 11.8945 41.9139 11.8945V19.0312H38.2572C34.6544 19.0312 33.5311 21.2667 33.5311 23.5601V28.9999H41.5741L40.2883 37.3827H33.5311V57.6475C47.3949 55.472 57.9998 43.4747 57.9998 28.9999Z" fill="#1877F2"/>
<path d="M40.2879 37.3819L41.5736 28.9991H33.5307V23.5594C33.5307 21.2656 34.6542 19.0304 38.2568 19.0304H41.9135V11.8937C41.9135 11.8937 38.5948 11.3273 35.4218 11.3273C28.7978 11.3273 24.4682 15.342 24.4682 22.6101V28.9991H17.105V37.3819H24.4682V57.6467C25.9672 57.8816 27.4822 57.9994 28.9995 57.999C30.5167 57.9994 32.0317 57.8817 33.5307 57.6467V37.3819H40.2879Z" fill="white"/>
</g>
<defs>
<clipPath id="clip0_68_4204">
<rect width="57.614" height="57.614" fill="white" transform="scale(1.0067)"/>
</clipPath>
</defs>
</svg>
