<svg width="28" height="28" viewBox="0 0 28 28" fill="none" xmlns="http://www.w3.org/2000/svg">
<path d="M13.9987 2.62573C11.749 2.62573 9.54983 3.29285 7.67927 4.54271C5.80872 5.79258 4.3508 7.56906 3.48987 9.64751C2.62895 11.726 2.4037 14.013 2.84259 16.2195C3.28148 18.426 4.36482 20.4527 5.95559 22.0435C7.54637 23.6343 9.57314 24.7176 11.7796 25.1565C13.9861 25.5954 16.2731 25.3702 18.3516 24.5092C20.43 23.6483 22.2065 22.1904 23.4564 20.3198C24.7063 18.4493 25.3734 16.2501 25.3734 14.0004C25.3702 10.9846 24.1708 8.09329 22.0383 5.96081C19.9058 3.82834 17.0145 2.62892 13.9987 2.62573ZM13.9987 23.6251C12.0951 23.6251 10.2343 23.0606 8.65149 22.0031C7.06871 20.9455 5.83509 19.4423 5.10662 17.6836C4.37814 15.9249 4.18754 13.9897 4.55891 12.1227C4.93029 10.2557 5.84695 8.54074 7.19299 7.1947C8.53904 5.84866 10.254 4.93199 12.121 4.56062C13.988 4.18925 15.9232 4.37985 17.6819 5.10832C19.4406 5.83679 20.9438 7.07042 22.0014 8.6532C23.0589 10.236 23.6234 12.0968 23.6234 14.0004C23.6205 16.5522 22.6056 18.9986 20.8012 20.8029C18.9969 22.6073 16.5504 23.6222 13.9987 23.6251ZM20.9985 14.0004C20.9985 14.2325 20.9063 14.455 20.7422 14.6191C20.5781 14.7832 20.3556 14.8754 20.1235 14.8754H13.9987C13.7666 14.8754 13.5441 14.7832 13.38 14.6191C13.2159 14.455 13.1237 14.2325 13.1237 14.0004V7.87558C13.1237 7.64352 13.2159 7.42097 13.38 7.25688C13.5441 7.09279 13.7666 7.00061 13.9987 7.00061C14.2308 7.00061 14.4533 7.09279 14.6174 7.25688C14.7815 7.42097 14.8737 7.64352 14.8737 7.87558V13.1254H20.1235C20.3556 13.1254 20.5781 13.2176 20.7422 13.3817C20.9063 13.5458 20.9985 13.7683 20.9985 14.0004Z" fill="#545454"/>
</svg>
