<svg width="81" height="18" viewBox="0 0 81 18" fill="none" xmlns="http://www.w3.org/2000/svg">
<path d="M12.6995 0.109239C11.9785 -0.261842 11.0407 0.336926 9.16506 1.53446L8.67981 1.84428C8.14681 2.18458 7.88031 2.35473 7.58121 2.40356C7.28212 2.4524 6.9843 2.37438 6.38865 2.21835L5.84636 2.0763C3.75026 1.52722 2.70221 1.25268 2.10211 1.83945C1.50201 2.42623 1.7473 3.48571 2.23786 5.60468L2.36477 6.15288C2.50418 6.75502 2.57388 7.0561 2.51728 7.35505C2.46069 7.65401 2.2842 7.91701 1.93124 8.443L1.60988 8.92188C0.367765 10.7729 -0.253293 11.6984 0.0968216 12.4321C0.446936 13.1658 1.53635 13.2219 3.71518 13.3339L4.27888 13.3629C4.89803 13.3948 5.20762 13.4107 5.47173 13.5466C5.73585 13.6826 5.9246 13.9231 6.3021 14.4042L6.64577 14.8422C7.97421 16.5353 8.63843 17.3818 9.45491 17.2485C10.2714 17.1152 10.6994 16.0904 11.5554 14.0406L11.7769 13.5104C12.0202 12.9279 12.1418 12.6367 12.3616 12.4217C12.5814 12.2068 12.8746 12.0925 13.4609 11.8638L13.9946 11.6556C16.0577 10.851 17.0893 10.4487 17.2438 9.63257C17.3983 8.81645 16.5734 8.12703 14.9236 6.74818L14.4968 6.39145C14.028 5.99964 13.7936 5.80371 13.6653 5.53494C13.5371 5.26616 13.5295 4.95495 13.5144 4.33252L13.5006 3.76585C13.4472 1.5755 13.4205 0.48032 12.6995 0.109239Z" fill="#CBA13D"/>
<path d="M33.9461 0.109239C33.2251 -0.261842 32.2873 0.336926 30.4116 1.53446L29.9264 1.84428C29.3934 2.18458 29.1269 2.35473 28.8278 2.40356C28.5287 2.4524 28.2308 2.37438 27.6352 2.21835L27.0929 2.0763C24.9968 1.52722 23.9488 1.25268 23.3487 1.83945C22.7486 2.42623 22.9938 3.48571 23.4844 5.60468L23.6113 6.15288C23.7507 6.75502 23.8204 7.0561 23.7638 7.35505C23.7072 7.65401 23.5308 7.91701 23.1778 8.443L22.8564 8.92188C21.6143 10.7729 20.9933 11.6984 21.3434 12.4321C21.6935 13.1658 22.7829 13.2219 24.9617 13.3339L25.5254 13.3629C26.1446 13.3948 26.4542 13.4107 26.7183 13.5466C26.9824 13.6826 27.1711 13.9231 27.5486 14.4042L27.8923 14.8422C29.2208 16.5353 29.885 17.3818 30.7015 17.2485C31.5179 17.1152 31.946 16.0904 32.802 14.0406L33.0234 13.5104C33.2667 12.9279 33.3883 12.6367 33.6082 12.4217C33.828 12.2068 34.1211 12.0925 34.7074 11.8638L35.2412 11.6556C37.3043 10.851 38.3359 10.4487 38.4904 9.63257C38.6449 8.81645 37.82 8.12703 36.1702 6.74818L35.7434 6.39145C35.2746 5.99964 35.0401 5.80371 34.9119 5.53494C34.7836 5.26616 34.7761 4.95495 34.7609 4.33252L34.7471 3.76585C34.6938 1.5755 34.6671 0.48032 33.9461 0.109239Z" fill="#CBA13D"/>
<path d="M55.1909 0.109239C54.4699 -0.261842 53.5321 0.336926 51.6564 1.53446L51.1712 1.84428C50.6382 2.18458 50.3717 2.35473 50.0726 2.40356C49.7735 2.4524 49.4757 2.37438 48.88 2.21835L48.3377 2.0763C46.2416 1.52722 45.1936 1.25268 44.5935 1.83945C43.9934 2.42623 44.2387 3.48571 44.7292 5.60468L44.8562 6.15288C44.9956 6.75502 45.0653 7.0561 45.0087 7.35505C44.9521 7.65401 44.7756 7.91701 44.4226 8.443L44.1013 8.92188C42.8591 10.7729 42.2381 11.6984 42.5882 12.4321C42.9383 13.1658 44.0277 13.2219 46.2066 13.3339L46.7703 13.3629C47.3894 13.3948 47.699 13.4107 47.9631 13.5466C48.2272 13.6826 48.416 13.9231 48.7935 14.4042L49.1372 14.8422C50.4656 16.5353 51.1298 17.3818 51.9463 17.2485C52.7628 17.1152 53.1908 16.0904 54.0468 14.0406L54.2683 13.5104C54.5115 12.9279 54.6332 12.6367 54.853 12.4217C55.0728 12.2068 55.366 12.0925 55.9522 11.8638L56.486 11.6556C58.5491 10.851 59.5807 10.4487 59.7352 9.63257C59.8897 8.81645 59.0648 8.12703 57.415 6.74818L56.9882 6.39145C56.5194 5.99964 56.285 5.80371 56.1567 5.53494C56.0285 5.26616 56.0209 4.95495 56.0057 4.33252L55.9919 3.76585C55.9386 1.5755 55.9119 0.48032 55.1909 0.109239Z" fill="#CBA13D"/>
<path d="M76.4375 0.109239C75.7165 -0.261842 74.7786 0.336926 72.903 1.53446L72.4177 1.84428C71.8847 2.18458 71.6182 2.35473 71.3191 2.40356C71.0201 2.4524 70.7222 2.37438 70.1266 2.21835L69.5843 2.0763C67.4882 1.52722 66.4401 1.25268 65.84 1.83945C65.2399 2.42623 65.4852 3.48571 65.9758 5.60468L66.1027 6.15288C66.2421 6.75502 66.3118 7.0561 66.2552 7.35505C66.1986 7.65401 66.0221 7.91701 65.6692 8.443L65.3478 8.92188C64.1057 10.7729 63.4846 11.6984 63.8348 12.4321C64.1849 13.1658 65.2743 13.2219 67.4531 13.3339L68.0168 13.3629C68.636 13.3948 68.9455 13.4107 69.2097 13.5466C69.4738 13.6826 69.6625 13.9231 70.04 14.4042L70.3837 14.8422C71.7121 16.5353 72.3764 17.3818 73.1928 17.2485C74.0093 17.1152 74.4373 16.0904 75.2934 14.0406L75.5148 13.5104C75.7581 12.9279 75.8797 12.6367 76.0995 12.4217C76.3194 12.2068 76.6125 12.0925 77.1988 11.8638L77.7325 11.6556C79.7957 10.851 80.8272 10.4487 80.9817 9.63257C81.1362 8.81645 80.3113 8.12703 78.6616 6.74818L78.2348 6.39145C77.7659 5.99964 77.5315 5.80371 77.4033 5.53494C77.275 5.26616 77.2674 4.95495 77.2523 4.33252L77.2385 3.76585C77.1851 1.5755 77.1585 0.48032 76.4375 0.109239Z" fill="#CBA13D"/>
</svg>
