<svg width="52" height="35" viewBox="0 0 52 35" fill="none" xmlns="http://www.w3.org/2000/svg">
<path fill-rule="evenodd" clip-rule="evenodd" d="M17.7478 2.07432C19.1466 1.99367 20.5438 2.00012 21.9426 2.00012C21.9523 2.00012 29.0308 2.00012 29.0308 2.00012C30.457 2.00012 31.8542 1.99367 33.2522 2.07432C34.5232 2.1469 35.7613 2.30173 36.9937 2.6477C39.5879 3.37512 41.8534 4.89446 43.491 7.04848C45.1189 9.1888 46 11.8089 46 14.4993C46 17.1928 45.1189 19.8113 43.491 21.9516C41.8534 24.1049 39.5879 25.625 36.9937 26.3524C35.7613 26.6984 34.5232 26.8524 33.2522 26.9258C31.8542 27.0065 30.457 26.9992 29.0582 26.9992C29.0485 26.9992 21.9684 27 21.9684 27C20.5438 26.9992 19.1466 27.0065 17.7478 26.9258C16.4776 26.8524 15.2395 26.6984 14.0071 26.3524C11.4129 25.625 9.14743 24.1049 7.50984 21.9516C5.8819 19.8113 5 17.1928 5 14.5001C5 11.8089 5.8819 9.1888 7.50984 7.04848C9.14743 4.89446 11.4129 3.37512 14.0071 2.6477C15.2395 2.30173 16.4776 2.1469 17.7478 2.07432Z" fill="#743C95"/>
<g filter="url(#filter0_dd_68_8565)">
<path fill-rule="evenodd" clip-rule="evenodd" d="M33.5 24C38.7467 24 43 19.7467 43 14.5C43 9.25329 38.7467 5 33.5 5C28.2533 5 24 9.25329 24 14.5C24 19.7467 28.2533 24 33.5 24Z" fill="white"/>
</g>
<defs>
<filter id="filter0_dd_68_8565" x="16" y="0" width="35" height="35" filterUnits="userSpaceOnUse" color-interpolation-filters="sRGB">
<feFlood flood-opacity="0" result="BackgroundImageFix"/>
<feColorMatrix in="SourceAlpha" type="matrix" values="0 0 0 0 0 0 0 0 0 0 0 0 0 0 0 0 0 0 127 0" result="hardAlpha"/>
<feOffset dy="3"/>
<feGaussianBlur stdDeviation="0.5"/>
<feColorMatrix type="matrix" values="0 0 0 0 0 0 0 0 0 0 0 0 0 0 0 0 0 0 0.06 0"/>
<feBlend mode="normal" in2="BackgroundImageFix" result="effect1_dropShadow_68_8565"/>
<feColorMatrix in="SourceAlpha" type="matrix" values="0 0 0 0 0 0 0 0 0 0 0 0 0 0 0 0 0 0 127 0" result="hardAlpha"/>
<feOffset dy="3"/>
<feGaussianBlur stdDeviation="4"/>
<feColorMatrix type="matrix" values="0 0 0 0 0 0 0 0 0 0 0 0 0 0 0 0 0 0 0.15 0"/>
<feBlend mode="normal" in2="effect1_dropShadow_68_8565" result="effect2_dropShadow_68_8565"/>
<feBlend mode="normal" in="SourceGraphic" in2="effect2_dropShadow_68_8565" result="shape"/>
</filter>
</defs>
</svg>
