<svg width="20" height="20" viewBox="0 0 20 20" fill="none" xmlns="http://www.w3.org/2000/svg">
<path d="M12.9209 2.87141C13.4809 2.32422 14.2342 2.0199 15.0172 2.02446C15.8002 2.02902 16.5498 2.34209 17.1035 2.89577C17.6572 3.44944 17.9702 4.19908 17.9748 4.98208C17.9794 5.76509 17.6751 6.51832 17.1279 7.07841L16.4589 7.74741L12.2519 3.54041L12.9209 2.87141ZM11.5449 4.24841L3.54585 12.2474C3.21854 12.5751 2.99134 12.9893 2.89085 13.4414L2.01285 17.3914C1.99449 17.4736 1.99718 17.5591 2.02068 17.64C2.04418 17.7208 2.08772 17.7945 2.14727 17.854C2.20681 17.9135 2.28044 17.9571 2.36131 17.9806C2.44217 18.0041 2.52767 18.0068 2.60985 17.9884L6.53585 17.1154C7.00329 17.0114 7.43136 16.7762 7.76986 16.4374L15.7519 8.45541L11.5449 4.24841Z" fill="white"/>
</svg>
