<svg width="94" height="94" viewBox="0 0 94 94" fill="none" xmlns="http://www.w3.org/2000/svg">
<g clip-path="url(#clip0_68_9267)">
<path d="M16.5925 41.1971C16.7815 40.4602 17.1137 39.7677 17.5702 39.1592C18.0268 38.5507 18.5987 38.038 19.2533 37.6506C19.908 37.2631 20.6326 37.0083 21.3857 36.9009C22.1388 36.7934 22.9056 36.8354 23.6425 37.0243C24.3794 37.2132 25.0719 37.5454 25.6804 38.002C26.2889 38.4585 26.8016 39.0304 27.189 39.6851C27.5765 40.3397 27.8313 41.0643 27.9387 41.8174C28.0462 42.5705 28.0042 43.3374 27.8153 44.0743L22.0609 66.5198C21.6793 68.0081 20.7222 69.2838 19.4001 70.0663C18.078 70.8489 16.4991 71.0742 15.0109 70.6926C13.5227 70.3111 12.2469 69.354 11.4644 68.0318C10.6818 66.7097 10.4566 65.1308 10.8381 63.6426L16.5925 41.1971ZM31.7164 44.4086L26.5087 64.7218C26.1516 66.112 26.1889 67.5742 26.6165 68.9444C27.0441 70.3146 27.845 71.5385 28.9294 72.4788L29.0924 72.6203C30.9023 74.19 33.0523 75.3172 35.3728 75.9128L55.6336 81.1072C57.3637 81.5515 59.1943 81.3824 60.8138 80.6287C62.4332 79.875 63.7414 78.5833 64.5155 76.9735L74.759 55.6788C75.2542 54.6491 75.5148 53.5223 75.5219 52.3797C75.5291 51.2371 75.2826 50.1072 74.8004 49.0713C74.3181 48.0355 73.612 47.1196 72.733 46.3896C71.854 45.6595 70.824 45.1336 69.7172 44.8498L56.3995 41.4355L60.2358 26.4718C60.7445 24.4875 60.4441 22.3823 59.4007 20.6195C58.3573 18.8566 56.6564 17.5805 54.6721 17.0718C53.6799 16.8174 52.6274 16.9676 51.7459 17.4893C50.8645 18.011 50.2264 18.8615 49.9721 19.8536L49.3324 22.3488C48.5023 25.5865 46.6445 28.4677 44.0379 30.5598L37.0109 36.1976C34.4043 38.2898 32.5465 41.1709 31.7164 44.4086Z" fill="white"/>
</g>
<defs>
<clipPath id="clip0_68_9267">
<rect width="76.879" height="76.879" fill="white" transform="translate(19.1815) scale(1.00467) rotate(14.3794)"/>
</clipPath>
</defs>
</svg>
