<svg width="29" height="29" viewBox="0 0 29 29" fill="none" xmlns="http://www.w3.org/2000/svg">
<path fill-rule="evenodd" clip-rule="evenodd" d="M0.752841 8.44298C0 9.81835 0 11.4775 0 14.7957V17.0012C0 22.6575 0 25.4856 1.69878 27.2428C3.39756 29 6.13171 29 11.6 29H17.4C22.8683 29 25.6024 29 27.3012 27.2428C29 25.4856 29 22.6575 29 17.0012V14.7957C29 11.4775 29 9.81835 28.2472 8.44298C27.4943 7.0676 26.1189 6.21399 23.3682 4.50678L20.4682 2.70696C17.5604 0.90232 16.1065 0 14.5 0C12.8935 0 11.4396 0.902321 8.53185 2.70696L5.63185 4.50678C2.88107 6.21399 1.50568 7.0676 0.752841 8.44298ZM13.4125 23.2C13.4125 23.8006 13.8994 24.2875 14.5 24.2875C15.1006 24.2875 15.5875 23.8006 15.5875 23.2V18.85C15.5875 18.2494 15.1006 17.7625 14.5 17.7625C13.8994 17.7625 13.4125 18.2494 13.4125 18.85V23.2Z" fill="#743C95"/>
</svg>
