<svg width="451" height="67" viewBox="0 0 451 67" fill="none" xmlns="http://www.w3.org/2000/svg">
<g opacity="0.3">
<path d="M26.6983 37.3767C26.6983 34.4722 26.6983 33.02 27.6006 32.1177C28.5029 31.2155 29.9551 31.2155 32.8595 31.2155H41.0745C43.9789 31.2155 45.4311 31.2155 46.3334 32.1177C47.2357 33.02 47.2357 34.4722 47.2357 37.3767C47.2357 40.2811 47.2357 41.7333 46.3334 42.6356C45.4311 43.5379 43.9789 43.5379 41.0745 43.5379H32.8595C29.9551 43.5379 28.5029 43.5379 27.6006 42.6356C26.6983 41.7333 26.6983 40.2811 26.6983 37.3767Z" stroke="#13131A" stroke-width="1.84555"/>
<path d="M30.8061 31.2167V29.163C30.8061 25.7603 33.5646 23.0018 36.9673 23.0018C40.3701 23.0018 43.1285 25.7603 43.1285 29.163V31.2167" stroke="#13131A" stroke-width="1.84555" stroke-linecap="round"/>
<path d="M32.8596 37.3772H32.8688M36.9578 37.3772H36.967M41.0653 37.3772H41.0745" stroke="#13131A" stroke-width="2.46073" stroke-linecap="round" stroke-linejoin="round"/>
</g>
</svg>
