<svg width="18" height="18" viewBox="0 0 18 18" fill="none" xmlns="http://www.w3.org/2000/svg">
<path d="M12.75 10.4996C13.1642 10.4996 13.5 10.1638 13.5 9.74957C13.5 9.33535 13.1642 8.99957 12.75 8.99957C12.3358 8.99957 12 9.33535 12 9.74957C12 10.1638 12.3358 10.4996 12.75 10.4996Z" fill="#545454"/>
<path d="M12.75 13.4996C13.1642 13.4996 13.5 13.1638 13.5 12.7496C13.5 12.3354 13.1642 11.9996 12.75 11.9996C12.3358 11.9996 12 12.3354 12 12.7496C12 13.1638 12.3358 13.4996 12.75 13.4996Z" fill="#545454"/>
<path d="M9.74997 9.74957C9.74997 10.1638 9.41418 10.4996 8.99997 10.4996C8.58575 10.4996 8.24997 10.1638 8.24997 9.74957C8.24997 9.33535 8.58575 8.99957 8.99997 8.99957C9.41418 8.99957 9.74997 9.33535 9.74997 9.74957Z" fill="#545454"/>
<path d="M9.74997 12.7496C9.74997 13.1638 9.41418 13.4996 8.99997 13.4996C8.58575 13.4996 8.24997 13.1638 8.24997 12.7496C8.24997 12.3354 8.58575 11.9996 8.99997 11.9996C9.41418 11.9996 9.74997 12.3354 9.74997 12.7496Z" fill="#545454"/>
<path d="M5.24997 10.4996C5.66418 10.4996 5.99997 10.1638 5.99997 9.74957C5.99997 9.33535 5.66418 8.99957 5.24997 8.99957C4.83575 8.99957 4.49997 9.33535 4.49997 9.74957C4.49997 10.1638 4.83575 10.4996 5.24997 10.4996Z" fill="#545454"/>
<path d="M5.24997 13.4996C5.66418 13.4996 5.99997 13.1638 5.99997 12.7496C5.99997 12.3354 5.66418 11.9996 5.24997 11.9996C4.83575 11.9996 4.49997 12.3354 4.49997 12.7496C4.49997 13.1638 4.83575 13.4996 5.24997 13.4996Z" fill="#545454"/>
<path fill-rule="evenodd" clip-rule="evenodd" d="M5.24997 1.31207C5.56063 1.31207 5.81247 1.56391 5.81247 1.87457V2.44661C6.30896 2.43706 6.85596 2.43706 7.45756 2.43707H10.5423C11.1439 2.43706 11.691 2.43706 12.1875 2.44661V1.87457C12.1875 1.56391 12.4393 1.31207 12.75 1.31207C13.0606 1.31207 13.3125 1.56391 13.3125 1.87457V2.49488C13.5074 2.50975 13.692 2.52843 13.8667 2.55192C14.746 2.67014 15.4578 2.91923 16.019 3.4805C16.5803 4.04177 16.8294 4.75348 16.9476 5.6328C17.0625 6.4872 17.0625 7.57892 17.0625 8.95723V10.5419C17.0625 11.9202 17.0625 13.0119 16.9476 13.8663C16.8294 14.7457 16.5803 15.4574 16.019 16.0186C15.4578 16.5799 14.7461 16.829 13.8667 16.9472C13.0123 17.0621 11.9206 17.0621 10.5423 17.0621H7.45766C6.07935 17.0621 4.9876 17.0621 4.1332 16.9472C3.25388 16.829 2.54217 16.5799 1.9809 16.0186C1.41963 15.4574 1.17054 14.7457 1.05232 13.8663C0.937446 13.0119 0.937455 11.9202 0.937467 10.5419V8.95725C0.937455 7.57894 0.937446 6.48721 1.05232 5.6328C1.17054 4.75348 1.41963 4.04177 1.9809 3.4805C2.54217 2.91923 3.25388 2.67014 4.1332 2.55192C4.30789 2.52843 4.49251 2.50975 4.68747 2.49488V1.87457C4.68747 1.56391 4.93931 1.31207 5.24997 1.31207ZM4.2831 3.66689C3.52854 3.76834 3.0938 3.95859 2.77639 4.276C2.45899 4.5934 2.26874 5.02814 2.16729 5.7827C2.15011 5.91049 2.13574 6.04503 2.12373 6.18707H15.8762C15.8642 6.04503 15.8498 5.91049 15.8326 5.7827C15.7312 5.02814 15.5409 4.5934 15.2235 4.276C14.9061 3.95859 14.4714 3.76834 13.7168 3.66689C12.9461 3.56326 11.9301 3.56207 10.5 3.56207H7.49997C6.06985 3.56207 5.05385 3.56326 4.2831 3.66689ZM2.06247 8.99957C2.06247 8.35906 2.06271 7.80161 2.07228 7.31207H15.9277C15.9372 7.80161 15.9375 8.35906 15.9375 8.99957V10.4996C15.9375 11.9297 15.9363 12.9457 15.8326 13.7164C15.7312 14.471 15.5409 14.9057 15.2235 15.2231C14.9061 15.5405 14.4714 15.7308 13.7168 15.8322C12.9461 15.9359 11.9301 15.9371 10.5 15.9371H7.49997C6.06985 15.9371 5.05385 15.9359 4.2831 15.8322C3.52854 15.7308 3.0938 15.5405 2.77639 15.2231C2.45899 14.9057 2.26874 14.471 2.16729 13.7164C2.06366 12.9457 2.06247 11.9297 2.06247 10.4996V8.99957Z" fill="#545454"/>
</svg>
