<svg width="17" height="17" viewBox="0 0 17 17" fill="none" xmlns="http://www.w3.org/2000/svg">
<path d="M8.50008 2.12435C8.50008 1.93649 8.42545 1.75632 8.29261 1.62348C8.15978 1.49064 7.97961 1.41602 7.79175 1.41602C7.60389 1.41602 7.42372 1.49064 7.29088 1.62348C7.15804 1.75632 7.08341 1.93649 7.08341 2.12435V7.08268H2.12508C1.93722 7.08268 1.75705 7.15731 1.62421 7.29015C1.49138 7.42299 1.41675 7.60315 1.41675 7.79102C1.41675 7.97888 1.49138 8.15904 1.62421 8.29188C1.75705 8.42472 1.93722 8.49935 2.12508 8.49935H7.08341V13.4577C7.08341 13.6455 7.15804 13.8257 7.29088 13.9585C7.42372 14.0914 7.60389 14.166 7.79175 14.166C7.97961 14.166 8.15978 14.0914 8.29261 13.9585C8.42545 13.8257 8.50008 13.6455 8.50008 13.4577V8.49935H13.4584C13.6463 8.49935 13.8264 8.42472 13.9593 8.29188C14.0921 8.15904 14.1667 7.97888 14.1667 7.79102C14.1667 7.60315 14.0921 7.42299 13.9593 7.29015C13.8264 7.15731 13.6463 7.08268 13.4584 7.08268H8.50008V2.12435Z" fill="white"/>
</svg>
