<svg width="22" height="23" viewBox="0 0 22 23" fill="none" xmlns="http://www.w3.org/2000/svg">
<path fill-rule="evenodd" clip-rule="evenodd" d="M10.7891 0C6.21006 0 2.49802 3.71204 2.49802 8.29107V9.04433C2.49802 9.7899 2.27733 10.5188 1.86376 11.1392L0.634962 12.9823C-0.791204 15.1216 0.297555 18.0294 2.77802 18.7059C3.58638 18.9263 4.40158 19.1128 5.22149 19.2653L5.22352 19.2708C6.0462 21.4659 8.245 23.001 10.789 23.001C13.333 23.001 15.5318 21.4659 16.3545 19.2708L16.3565 19.2653C17.1765 19.1128 17.9917 18.9263 18.8002 18.7059C21.2806 18.0294 22.3694 15.1216 20.9432 12.9823L19.7144 11.1392C19.3008 10.5188 19.0802 9.7899 19.0802 9.04433V8.29107C19.0802 3.71204 15.3681 0 10.7891 0ZM14.4012 19.5637C12.0017 19.8504 9.57635 19.8504 7.1768 19.5637C7.93739 20.6565 9.26029 21.3963 10.789 21.3963C12.3177 21.3963 13.6406 20.6565 14.4012 19.5637ZM4.10274 8.29107C4.10274 4.5983 7.09632 1.60472 10.7891 1.60472C14.4819 1.60472 17.4754 4.5983 17.4754 8.29107V9.04433C17.4754 10.1067 17.7899 11.1453 18.3792 12.0293L19.608 13.8725C20.4266 15.1004 19.8017 16.7694 18.3779 17.1577C13.4094 18.5127 8.16874 18.5127 3.20025 17.1577C1.77651 16.7694 1.15158 15.1004 1.97017 13.8725L3.19897 12.0293C3.78827 11.1453 4.10274 10.1067 4.10274 9.04433V8.29107Z" fill="#111010"/>
</svg>
