<svg width="334" height="95" viewBox="0 0 334 95" fill="none" xmlns="http://www.w3.org/2000/svg">
<circle cx="165.3" cy="47.5" r="47.5" fill="#ED2222"/>
<path d="M184.833 49.2477L184.43 51.3503C184.058 53.3162 182.216 54.6386 180.131 54.4359L175.984 54.0357C174.175 53.8609 172.835 52.541 172.268 50.6663C171.498 48.1203 171.001 46.233 171.001 46.233C169.001 45.3757 166.844 44.9444 164.668 44.9663C162.099 44.9663 160.265 45.511 158.334 46.233C158.334 46.233 157.818 48.1229 157.068 50.6663C156.566 52.3637 155.791 53.8507 154.02 54.0281L149.896 54.4435C148.892 54.54 147.885 54.288 147.044 53.7298C146.204 53.1716 145.581 52.3413 145.28 51.3782L144.652 49.2781C144.34 48.274 144.312 47.2035 144.57 46.1844C144.828 45.1653 145.362 44.2371 146.114 43.5021C149.724 39.9959 156.222 38.0199 164.647 38.0098C173.089 37.9997 178.819 39.9655 182.791 43.4717C184.463 44.9461 185.228 47.1653 184.831 49.2477H184.833Z" fill="white"/>
<path d="M35.1497 44.0696C35.1497 41.9157 33.3981 40.1641 31.2442 40.1641H7.81083C5.65691 40.1641 3.90527 41.9157 3.90527 44.0696V63.5974C3.90527 65.7513 5.65691 67.503 7.81083 67.503H31.2442C33.3981 67.503 35.1497 65.7513 35.1497 63.5974V57.0888L42.9608 63.5974V44.0696L35.1497 50.5782V44.0696Z" fill="#111010"/>
<path d="M308.434 63.3325C312.974 63.3325 316.667 59.6399 316.667 55.0992V42.7492C316.667 38.1859 312.993 34.4727 308.477 34.4727C308.332 34.4735 308.188 34.4908 308.047 34.5241C305.933 34.6266 303.94 35.5375 302.48 37.0685C301.019 38.5995 300.203 40.6333 300.2 42.7492V55.0992C300.2 59.6399 303.893 63.3325 308.434 63.3325Z" fill="#111010"/>
<path d="M306.375 71.4242V75.6829H310.492V71.4242C318.6 70.4054 324.9 63.4832 324.9 55.0996H320.783C320.783 61.9106 315.244 67.4496 308.433 67.4496C301.622 67.4496 296.083 61.9106 296.083 55.0996H291.967C291.967 63.4811 298.267 70.4054 306.375 71.4242Z" fill="#111010"/>
</svg>
