<svg width="44" height="44" viewBox="0 0 44 44" fill="none" xmlns="http://www.w3.org/2000/svg">
<path d="M18.9328 2.5554C19.3215 2.12837 19.7951 1.78722 20.3233 1.55378C20.8515 1.32034 21.4225 1.19976 22 1.19976C22.5775 1.19976 23.1486 1.32034 23.6767 1.55378C24.2049 1.78722 24.6785 2.12837 25.0672 2.5554L27.1825 4.87811C27.5933 5.32899 28.0984 5.68375 28.6619 5.91711C29.2254 6.15047 29.8334 6.25668 30.4426 6.22818L33.5803 6.08301C34.1569 6.05584 34.7329 6.14933 35.2712 6.35748C35.8096 6.56563 36.2986 6.88387 36.707 7.29184C37.1154 7.69981 37.4341 8.18852 37.6427 8.72671C37.8514 9.2649 37.9454 9.84073 37.9188 10.4173L37.7716 13.5571C37.7431 14.1664 37.8493 14.7744 38.0827 15.3379C38.316 15.9014 38.6708 16.4065 39.1217 16.8172L41.4444 18.9325C41.8714 19.3213 42.2125 19.7949 42.446 20.323C42.6794 20.8512 42.8 21.4223 42.8 21.9998C42.8 22.5772 42.6794 23.1483 42.446 23.6765C42.2125 24.2046 41.8714 24.6783 41.4444 25.067L39.1217 27.1823C38.6708 27.593 38.316 28.0981 38.0827 28.6616C37.8493 29.2251 37.7431 29.8331 37.7716 30.4424L37.9168 33.5801C37.9439 34.1567 37.8504 34.7326 37.6423 35.271C37.4341 35.8094 37.1159 36.2984 36.7079 36.7068C36.3 37.1151 35.8112 37.4338 35.273 37.6425C34.7349 37.8512 34.159 37.9452 33.5824 37.9186L30.4426 37.7713C29.8334 37.7428 29.2254 37.849 28.6619 38.0824C28.0984 38.3158 27.5933 38.6705 27.1825 39.1214L25.0672 41.4441C24.6785 41.8711 24.2049 42.2123 23.6767 42.4457C23.1486 42.6792 22.5775 42.7998 22 42.7998C21.4225 42.7998 20.8515 42.6792 20.3233 42.4457C19.7951 42.2123 19.3215 41.8711 18.9328 41.4441L16.8175 39.1214C16.4068 38.6705 15.9017 38.3158 15.3382 38.0824C14.7747 37.849 14.1666 37.7428 13.5574 37.7713L10.4197 37.9165C9.84307 37.9437 9.26716 37.8502 8.72877 37.642C8.19038 37.4339 7.70136 37.1156 7.29301 36.7077C6.88465 36.2997 6.56594 35.811 6.35727 35.2728C6.1486 34.7346 6.05457 34.1588 6.08118 33.5822L6.22843 30.4424C6.25693 29.8331 6.15072 29.2251 5.91736 28.6616C5.684 28.0981 5.32924 27.593 4.87836 27.1823L2.55565 25.067C2.12862 24.6783 1.78747 24.2046 1.55403 23.6765C1.32059 23.1483 1.20001 22.5772 1.20001 21.9998C1.20001 21.4223 1.32059 20.8512 1.55403 20.323C1.78747 19.7949 2.12862 19.3213 2.55565 18.9325L4.87836 16.8172C5.32924 16.4065 5.684 15.9014 5.91736 15.3379C6.15072 14.7744 6.25693 14.1664 6.22843 13.5571L6.08326 10.4194C6.05609 9.84283 6.14958 9.26691 6.35773 8.72852C6.56588 8.19013 6.88412 7.70111 7.29209 7.29276C7.70006 6.8844 8.18877 6.56569 8.72696 6.35702C9.26515 6.14835 9.84098 6.05432 10.4176 6.08094L13.5574 6.22818C14.1666 6.25668 14.7747 6.15047 15.3382 5.91711C15.9017 5.68375 16.4068 5.32899 16.8175 4.87811L18.9328 2.5554Z" fill="#5599FF" stroke="white" stroke-width="2.34813"/>
<path d="M15.7775 22.0003L19.9252 26.148L28.2206 17.8526" fill="#5599FF"/>
<path d="M15.7775 22.0003L19.9252 26.148L28.2206 17.8526" stroke="white" stroke-width="2.34813" stroke-linecap="round" stroke-linejoin="round"/>
</svg>
