<svg width="23" height="21" viewBox="0 0 23 21" fill="none" xmlns="http://www.w3.org/2000/svg">
<path d="M11.0638 13.5154C12.7303 13.5154 14.0812 12.1645 14.0812 10.498C14.0812 8.83157 12.7303 7.48064 11.0638 7.48064C9.39733 7.48064 8.0464 8.83157 8.0464 10.498C8.0464 12.1645 9.39733 13.5154 11.0638 13.5154Z" stroke="#743C95" stroke-width="1.5" stroke-miterlimit="10" stroke-linecap="round" stroke-linejoin="round"/>
<path d="M1.0058 11.3845V9.61434C1.0058 8.56831 1.86073 7.70332 2.91682 7.70332C4.73732 7.70332 5.48161 6.4159 4.56633 4.83679C4.04332 3.93157 4.35511 2.75479 5.27039 2.23177L7.01042 1.23603C7.80501 0.763303 8.83092 1.04493 9.30365 1.83951L9.41429 2.03061C10.3195 3.60972 11.8081 3.60972 12.7234 2.03061L12.834 1.83951C13.3067 1.04493 14.3326 0.763303 15.1272 1.23603L16.8673 2.23177C17.7825 2.75479 18.0943 3.93157 17.5713 4.83679C16.656 6.4159 17.4003 7.70332 19.2208 7.70332C20.2669 7.70332 21.1319 8.55825 21.1319 9.61434V11.3845C21.1319 12.4306 20.2769 13.2956 19.2208 13.2956C17.4003 13.2956 16.656 14.583 17.5713 16.1621C18.0943 17.0774 17.7825 18.2441 16.8673 18.7671L15.1272 19.7629C14.3326 20.2356 13.3067 19.954 12.834 19.1594L12.7234 18.9683C11.8181 17.3892 10.3296 17.3892 9.41429 18.9683L9.30365 19.1594C8.83092 19.954 7.80501 20.2356 7.01042 19.7629L5.27039 18.7671C4.35511 18.2441 4.04332 17.0673 4.56633 16.1621C5.48161 14.583 4.73732 13.2956 2.91682 13.2956C1.86073 13.2956 1.0058 12.4306 1.0058 11.3845Z" stroke="#743C95" stroke-width="2" stroke-miterlimit="10" stroke-linecap="round" stroke-linejoin="round"/>
</svg>
