<svg width="49" height="49" viewBox="0 0 49 49" fill="none" xmlns="http://www.w3.org/2000/svg">
<path d="M41.8588 7.12954C39.6014 4.86069 36.9125 3.06178 33.949 1.83774C30.9856 0.613701 27.8068 -0.0109761 24.5982 0.000145943C11.1541 0.000145943 0.196983 10.9025 0.196983 24.2793C0.196983 28.5667 1.32963 32.7316 3.44719 36.4066L0 48.9994L12.927 45.6184C16.4973 47.5539 20.5108 48.5829 24.5982 48.5829C38.0422 48.5829 48.9994 37.6806 48.9994 24.3038C48.9994 17.8114 46.4632 11.711 41.8588 7.12954ZM24.5982 44.467C20.954 44.467 17.3837 43.487 14.2566 41.6495L13.5179 41.2085L5.83561 43.2175L7.8793 35.7696L7.38684 35.0101C5.36222 31.7932 4.28718 28.0749 4.28437 24.2793C4.28437 13.1564 13.3948 4.09158 24.5736 4.09158C29.9906 4.09158 35.0875 6.19855 38.904 10.0205C40.7938 11.8922 42.2914 14.1185 43.31 16.5703C44.3287 19.0221 44.8481 21.6507 44.8381 24.3038C44.8874 35.4266 35.7769 44.467 24.5982 44.467ZM35.7277 29.3752C35.1121 29.0812 32.1081 27.6112 31.5664 27.3907C31.0001 27.1947 30.6062 27.0967 30.1876 27.6847C29.769 28.2972 28.6117 29.6692 28.267 30.0612C27.9223 30.4777 27.5529 30.5267 26.9373 30.2082C26.3218 29.9142 24.352 29.2527 22.0374 27.1947C20.2153 25.5778 19.0088 23.5933 18.6395 22.9808C18.2947 22.3683 18.5902 22.0498 18.9103 21.7313C19.1812 21.4618 19.5259 21.0208 19.8214 20.6778C20.1168 20.3348 20.2399 20.0653 20.4369 19.6733C20.6339 19.2568 20.5354 18.9139 20.3877 18.6199C20.2399 18.3259 19.0088 15.3369 18.5164 14.1119C18.0239 12.9359 17.5068 13.0829 17.1375 13.0584H15.9556C15.537 13.0584 14.8968 13.2054 14.3305 13.8179C13.7888 14.4304 12.2129 15.9004 12.2129 18.8894C12.2129 21.8783 14.4043 24.7693 14.6998 25.1613C14.9953 25.5778 19.0088 31.7027 25.1153 34.3241C26.568 34.9611 27.7007 35.3286 28.5871 35.5981C30.0398 36.0636 31.3695 35.9901 32.4282 35.8431C33.6101 35.6716 36.0478 34.3731 36.5402 32.9521C37.0573 31.5312 37.0573 30.3307 36.885 30.0612C36.7126 29.7917 36.3433 29.6692 35.7277 29.3752Z" fill="black"/>
</svg>
