<svg width="451" height="67" viewBox="0 0 451 67" fill="none" xmlns="http://www.w3.org/2000/svg">
<g opacity="0.3">
<path d="M26.6983 33.2726C26.6983 29.4 26.6983 27.4637 27.9014 26.2607C29.1044 25.0576 31.0407 25.0576 34.9133 25.0576H39.0207C42.8933 25.0576 44.8296 25.0576 46.0326 26.2607C47.2357 27.4637 47.2357 29.4 47.2357 33.2726C47.2357 37.1451 47.2357 39.0814 46.0326 40.2845C44.8296 41.4875 42.8933 41.4875 39.0207 41.4875H34.9133C31.0407 41.4875 29.1044 41.4875 27.9014 40.2845C26.6983 39.0814 26.6983 37.1451 26.6983 33.2726Z" stroke="#13131A" stroke-width="1.84555"/>
<path d="M30.8061 29.1655L33.023 31.0129C34.909 32.5845 35.852 33.3704 36.9673 33.3704C38.0827 33.3704 39.0257 32.5845 40.9116 31.0129L43.1285 29.1655" stroke="#13131A" stroke-width="1.84555" stroke-linecap="round"/>
</g>
</svg>
