<svg width="471" height="70" viewBox="0 0 471 70" fill="none" xmlns="http://www.w3.org/2000/svg">
<g opacity="0.3">
<path fill-rule="evenodd" clip-rule="evenodd" d="M38.6059 23.2177C35.7926 23.2177 33.512 25.4984 33.512 28.3117C33.512 31.1249 35.7926 33.4056 38.6059 33.4056C41.4192 33.4056 43.6999 31.1249 43.6999 28.3117C43.6999 25.4984 41.4192 23.2177 38.6059 23.2177ZM35.1206 28.3117C35.1206 26.3868 36.681 24.8263 38.6059 24.8263C40.5308 24.8263 42.0913 26.3868 42.0913 28.3117C42.0913 30.2365 40.5308 31.797 38.6059 31.797C36.681 31.797 35.1206 30.2365 35.1206 28.3117Z" fill="#13131A"/>
<path fill-rule="evenodd" clip-rule="evenodd" d="M38.6059 35.0142C36.1249 35.0142 33.839 35.5781 32.1452 36.5309C30.4766 37.4695 29.2224 38.8921 29.2224 40.6443L29.2223 40.7536C29.2211 41.9996 29.2196 43.5634 30.5912 44.6803C31.2663 45.2301 32.2106 45.621 33.4865 45.8792C34.7659 46.1382 36.4335 46.2744 38.6059 46.2744C40.7784 46.2744 42.4459 46.1382 43.7254 45.8792C45.0012 45.621 45.9456 45.2301 46.6206 44.6803C47.9923 43.5634 47.9908 41.9996 47.9895 40.7536L47.9895 40.6443C47.9895 38.8921 46.7353 37.4695 45.0667 36.5309C43.3729 35.5781 41.087 35.0142 38.6059 35.0142ZM30.831 40.6443C30.831 39.7313 31.4974 38.7409 32.9338 37.9329C34.3451 37.1391 36.3488 36.6228 38.6059 36.6228C40.8631 36.6228 42.8668 37.1391 44.2781 37.9329C45.7145 38.7409 46.3809 39.7313 46.3809 40.6443C46.3809 42.0468 46.3376 42.8363 45.6049 43.433C45.2075 43.7566 44.5433 44.0724 43.4062 44.3026C42.2728 44.532 40.7231 44.6658 38.6059 44.6658C36.4888 44.6658 34.9391 44.532 33.8056 44.3026C32.6686 44.0724 32.0043 43.7566 31.607 43.433C30.8742 42.8363 30.831 42.0468 30.831 40.6443Z" fill="#13131A"/>
</g>
</svg>
